<svg width="42" height="23" viewBox="0 0 42 23" fill="none" xmlns="http://www.w3.org/2000/svg">
<path d="M20.9997 23C20.0542 23 19.1415 22.5935 18.3626 21.8094C17.3503 20.7905 16.6977 19.2665 16.5276 17.5179C16.4316 16.5314 16.4789 15.6742 16.6758 14.8985C16.784 14.4682 16.8022 14.026 16.7949 13.4919C16.7913 13.2605 16.7913 13.0275 16.7901 12.7945C16.7876 12.308 16.7864 11.8046 16.7621 11.3164C16.7512 11.0936 16.7208 10.4557 17.1437 10.0424C16.6199 9.33142 16.101 8.59492 15.5979 7.88224C15.5408 7.8006 15.491 7.76998 15.4022 7.75637C14.2064 7.57777 13.0119 7.39408 11.8173 7.21038L10.393 6.99096C10.0953 6.94503 9.79633 6.90081 9.4986 6.85488C8.98576 6.77834 8.47172 6.7001 7.95888 6.61846C7.9042 6.90251 7.74014 7.34305 7.22974 7.27671C6.99155 7.2461 6.75944 7.2461 6.54313 7.27671C6.19435 7.32774 5.93793 7.13043 5.75808 6.68139C5.62926 6.35822 5.5126 6.10648 5.39229 5.89216C5.1541 5.46693 5.12251 5.01279 5.12129 4.6641C5.12129 4.45149 5.13831 4.20825 5.27077 4.02285C5.40687 3.83405 5.59038 3.81194 5.72162 3.81534C6.95509 3.82725 8.20922 3.82725 9.42325 3.82555L10.6336 3.82385C11.065 3.82385 11.4965 3.82215 11.9279 3.82044C13.0143 3.81534 14.1384 3.81024 15.2443 3.83915C15.6344 3.84936 15.9989 3.67927 16.3829 3.49897C16.4498 3.46835 16.5166 3.43604 16.5835 3.40542C17.2227 3.11456 17.8692 2.80329 18.495 2.50053L18.8146 2.34575C18.9921 2.2607 19.1719 2.21818 19.3627 2.21818C19.3639 2.21818 19.3652 2.21818 19.3676 2.21818C19.9169 2.21988 20.4662 2.21988 21.0142 2.21818C21.5028 2.21818 21.9913 2.21648 22.4798 2.21818C22.848 2.21818 23.1628 2.38827 23.4678 2.55326C23.582 2.61449 23.6914 2.67402 23.7996 2.72165C24.3513 2.96488 24.9042 3.23533 25.4401 3.49557C25.6322 3.58912 25.8254 3.68267 26.0186 3.77622C26.1037 3.81704 26.1985 3.82555 26.3248 3.82555H28.8902C31.2551 3.82555 33.6977 3.82555 36.1003 3.81704C36.1015 3.81704 36.1027 3.81704 36.1039 3.81704C36.5207 3.81704 36.7164 4.08919 36.72 4.6709C36.7225 5.13015 36.6289 5.52647 36.4247 5.91768C36.3688 6.02484 36.3178 6.15751 36.2631 6.29698C36.1391 6.61335 35.9994 6.97225 35.7503 7.16105C35.5048 7.34815 35.2192 7.31924 34.9664 7.29372C34.8486 7.28182 34.738 7.26991 34.642 7.28011C34.1352 7.33114 33.9383 6.98075 33.8666 6.62526C32.8762 6.78175 31.8846 6.93313 30.8942 7.08451C30.5381 7.13894 30.182 7.19507 29.8247 7.2495C28.8598 7.40088 27.8621 7.55566 26.8778 7.68493C26.4281 7.74446 26.1802 7.89585 25.9639 8.24624C25.6382 8.77352 25.2773 9.25828 24.9273 9.72604C24.8763 9.79407 24.8264 9.86041 24.7766 9.92845C25.3186 10.4455 25.2688 11.279 25.2506 11.5681C25.2311 11.8947 25.2323 12.2247 25.2348 12.5734C25.2372 12.9374 25.2396 13.315 25.2141 13.6926C25.1874 14.0991 25.2627 14.4937 25.3429 14.9121C25.3842 15.1282 25.4268 15.351 25.4572 15.584C25.8922 18.9671 24.2905 22.2414 21.8856 22.8826C21.5878 22.9609 21.2925 23 20.9997 23ZM17.3989 13.9953C17.3867 14.3832 17.3491 14.7829 17.2482 15.1843C17.0854 15.8289 17.0465 16.5552 17.1291 17.404C17.2774 18.9195 17.8412 20.2394 18.7174 21.1205C19.5997 22.0084 20.6837 22.3384 21.7701 22.0475C23.8494 21.493 25.2336 18.661 24.8568 15.7354C24.8313 15.5381 24.7936 15.3408 24.7535 15.1316C24.6636 14.6604 24.5712 14.1722 24.6065 13.616C24.6284 13.2793 24.6259 12.9391 24.6247 12.5785C24.6223 12.2264 24.6211 11.8624 24.6429 11.4967C24.6782 10.9099 24.5591 10.7075 24.3428 10.5578C24.1763 10.4421 24.0803 10.2805 24.0572 10.0781C24.022 9.76346 24.1897 9.53723 24.2529 9.45049C24.3367 9.33653 24.4206 9.22426 24.5056 9.1103C24.8447 8.65616 25.1959 8.185 25.5021 7.68833C25.9044 7.03688 26.3929 6.8923 26.8194 6.83617C27.7989 6.70861 28.793 6.55212 29.7555 6.40244C30.1128 6.34631 30.4688 6.29018 30.8261 6.23575C31.8299 6.08267 32.8349 5.92788 33.8387 5.7697C34.3284 5.69486 34.4244 6.18642 34.4414 6.33951C34.4475 6.39564 34.456 6.41945 34.4585 6.42625C34.4597 6.42455 34.4803 6.43136 34.5302 6.43136C34.5484 6.43136 34.5691 6.42965 34.5958 6.42795C34.7368 6.41435 34.8753 6.42795 35.009 6.44156C35.1864 6.46027 35.3687 6.47898 35.4586 6.41094C35.5497 6.34121 35.6409 6.10988 35.7284 5.88706C35.7904 5.72888 35.8536 5.56559 35.9326 5.41421C36.0589 5.17097 36.1124 4.95156 36.1112 4.67601C36.1112 4.6726 36.1112 4.6692 36.1112 4.6658C36.1088 4.6658 36.1051 4.6658 36.1015 4.6658C33.6977 4.67431 31.2539 4.67431 28.8902 4.67431H26.3248C26.1656 4.67431 25.9955 4.6624 25.8205 4.57905C25.6273 4.4855 25.4341 4.39195 25.2408 4.2967C24.7098 4.03816 24.1617 3.76942 23.6185 3.53129C23.4921 3.47516 23.3694 3.40882 23.2503 3.34589C22.9854 3.20301 22.7362 3.06864 22.4798 3.06864C21.9913 3.06694 21.504 3.06864 21.0154 3.06864C20.4662 3.06864 19.9157 3.07034 19.3664 3.06864C19.3652 3.06864 19.3652 3.06864 19.3639 3.06864C19.2412 3.06864 19.127 3.09585 19.0139 3.15028L18.6943 3.30507C18.0661 3.60783 17.4159 3.9225 16.7718 4.21506C16.7062 4.24397 16.6418 4.27459 16.5762 4.30521C16.1606 4.50081 15.7304 4.70322 15.2333 4.68961C14.1335 4.6607 13.0131 4.6675 11.9303 4.6709C11.4977 4.6726 11.0663 4.67431 10.6336 4.67431L9.42447 4.67601C8.21408 4.67771 6.96238 4.67941 5.73013 4.6675C5.73134 4.99408 5.77145 5.19139 5.87231 5.36998C6.01206 5.62002 6.14574 5.90577 6.29036 6.26807C6.35719 6.43646 6.39365 6.44666 6.48479 6.43306C6.74121 6.39734 7.01099 6.39734 7.28807 6.43306C7.3306 6.43816 7.35612 6.43646 7.36949 6.43306C7.37192 6.42285 7.37557 6.40584 7.378 6.38203C7.40473 6.17282 7.52018 5.69486 8.01114 5.7731C8.52883 5.85644 9.04774 5.93469 9.56543 6.01123C9.86438 6.05545 10.1633 6.10138 10.4623 6.1473L11.8853 6.36672C13.0799 6.55042 14.2733 6.73412 15.4679 6.91272C15.6963 6.94673 15.875 7.0658 16.0317 7.28692C16.5579 8.03362 17.1012 8.80414 17.648 9.54234C17.7124 9.62908 17.8826 9.85871 17.8497 10.1836C17.8169 10.5017 17.6152 10.6479 17.5496 10.6956C17.4147 10.7942 17.3539 10.9031 17.3709 11.262C17.3952 11.7739 17.3977 12.291 17.4001 12.7911C17.4013 12.9952 17.4013 13.1993 17.4037 13.4034L17.4742 12.7928C17.49 12.6601 17.5022 12.5377 17.5131 12.422C17.5386 12.1703 17.5617 11.9338 17.6067 11.7008C17.6918 11.2637 17.9555 11.08 18.1292 10.9575C18.156 10.9388 18.1827 10.9201 18.2082 10.9014C18.3541 10.7908 18.5728 10.7466 18.7952 11.1582C18.8049 11.1769 18.8146 11.1956 18.8244 11.2109C18.9884 11.3793 19.0103 11.5817 19.0079 11.6889C19.0054 11.7978 18.9751 12.0019 18.7976 12.1584C18.5339 12.388 18.3079 12.7094 18.0223 13.1143L17.3989 13.9953ZM20.9997 21.7515C19.0018 21.7515 17.377 19.4723 17.3758 16.6726C17.3758 15.3187 17.7525 14.0447 18.4367 13.0871C19.1209 12.1294 20.0311 11.6004 20.9984 11.6004C22.9999 11.6004 24.6308 13.8678 24.632 16.6539C24.6332 18.0214 24.2565 19.3022 23.5723 20.2615C22.8881 21.2226 21.9743 21.7515 20.9997 21.7515ZM20.9984 12.0257V12.4509C20.1927 12.4509 19.4356 12.8897 18.8657 13.6875C18.2957 14.4852 17.9822 15.5449 17.9834 16.6709C17.9834 19.0029 19.3372 20.8994 20.9997 20.8994C21.8114 20.8994 22.5722 20.4588 23.1421 19.6594C23.7121 18.86 24.0256 17.7918 24.0244 16.6522C24.0232 14.3338 22.6657 12.4492 20.9984 12.4492V12.0257ZM24.5336 13.9103L23.9916 13.1143C23.6489 12.6108 23.384 12.2927 23.1045 12.0478C22.8249 11.8063 22.8966 11.4627 22.9258 11.364C23.0012 11.1021 23.1531 10.9065 23.3402 10.8265C23.5225 10.75 23.7181 10.7942 23.8773 10.9473C24.4206 11.4695 24.4971 11.7944 24.5141 12.8115L24.5336 13.9103Z" fill="#032D5F"/>
<path d="M41.9998 0.711075C41.9269 0.959409 41.8127 0.993427 41.6766 1.00363C39.8379 1.13971 37.9992 1.28088 36.1606 1.42206C35.8811 1.44417 35.7425 1.16012 35.858 0.804625C35.8859 0.719579 35.9321 0.717879 35.9819 0.714477C36.05 0.711075 36.1193 0.711075 36.1873 0.711075C38.0211 0.711075 39.8561 0.711075 41.6899 0.711075C41.7835 0.711075 41.8771 0.711075 41.9998 0.711075Z" fill="#032D5F"/>
<path d="M0 0.710875C0.103296 0.710875 0.177425 0.710875 0.25277 0.710875C2.12789 0.710875 4.00301 0.710875 5.87813 0.714276C5.96563 0.714276 6.10173 0.644539 6.1309 0.790818C6.16614 0.967713 6.15885 1.17523 6.1309 1.35892C6.11146 1.48649 5.99844 1.42696 5.92674 1.42186C4.91809 1.34872 3.91065 1.27218 2.902 1.19564C2.0489 1.1327 1.19458 1.06467 0.340268 1.00513C0.202946 0.996629 0.0887127 0.962611 0 0.710875Z" fill="#032D5F"/>
<path d="M28.5926 0.755275C28.6594 0.685538 28.7299 0.714453 28.7943 0.714453C30.6804 0.712752 32.5676 0.711051 34.4537 0.716154C34.5388 0.716154 34.6724 0.641314 34.7004 0.804602C34.732 0.984899 34.7235 1.18901 34.698 1.37441C34.6834 1.47817 34.5776 1.43224 34.5145 1.42714C33.4961 1.3523 32.4777 1.27406 31.4593 1.19751C30.6123 1.13288 29.7653 1.06314 28.9183 1.00531C28.7749 0.993404 28.6485 0.978096 28.5926 0.755275Z" fill="#032D5F"/>
<path d="M13.4308 0.734742C13.3578 0.930347 13.2704 0.99158 13.1464 1.00009C11.8133 1.09534 10.4802 1.19399 9.14703 1.29264C8.60017 1.33347 8.05331 1.37939 7.50645 1.42702C7.37521 1.43892 7.25368 1.44232 7.28893 1.18208C7.31445 0.998384 7.17955 0.705826 7.48093 0.707527C9.42532 0.716032 11.3685 0.71263 13.3129 0.71263C13.3469 0.71263 13.3785 0.724536 13.4308 0.734742Z" fill="#032D5F"/>
<path d="M6.76672 3.88998C6.49208 3.88998 6.26969 3.88148 6.0473 3.89338C5.91484 3.90019 5.85286 3.83896 5.86866 3.65015C5.86987 3.63825 5.86866 3.62634 5.86866 3.61443C5.87473 3.21982 5.7763 2.70784 5.91605 2.46461C6.0631 2.20777 6.44468 2.40338 6.72419 2.38637C6.95508 2.37106 7.18598 2.38977 7.41688 2.38127C7.52625 2.37787 7.57607 2.4357 7.56757 2.58878C7.56635 2.61259 7.56878 2.63641 7.56757 2.66022C7.55541 3.05313 7.68301 3.5583 7.5226 3.80834C7.36098 4.06348 6.99276 3.84916 6.76672 3.88998Z" fill="#032D5F"/>
<path d="M35.3103 2.3812C35.5157 2.3812 35.7223 2.39821 35.9277 2.3761C36.1075 2.35739 36.1513 2.46455 36.1404 2.68737C36.1221 3.06837 36.2497 3.55654 36.093 3.80487C35.9313 4.06001 35.5765 3.8627 35.3067 3.88651C35.1621 3.90012 35.015 3.88822 34.8692 3.88822C34.4402 3.88822 34.4402 3.88822 34.4402 3.26908C34.4402 2.3795 34.4402 2.3795 35.0782 2.3795C35.156 2.3812 35.2338 2.3812 35.3103 2.3812Z" fill="#032D5F"/>
<path d="M6.71829 2.15005C6.4874 2.15005 6.25772 2.14665 6.02682 2.15175C5.92596 2.15345 5.86641 2.12623 5.86641 1.95784C5.86641 1.79455 5.89922 1.72482 6.02682 1.72652C6.4874 1.73502 6.94798 1.73502 7.40977 1.72652C7.53372 1.72482 7.57383 1.79115 7.57261 1.95784C7.57139 2.12453 7.50942 2.15345 7.40977 2.15175C7.18009 2.14665 6.94919 2.15005 6.71829 2.15005Z" fill="#032D5F"/>
<path d="M35.2904 2.14837C35.0607 2.14837 34.8298 2.13817 34.6001 2.15177C34.4725 2.15858 34.4397 2.08884 34.4385 1.92385C34.4373 1.76056 34.4895 1.72484 34.594 1.72654C35.0546 1.73165 35.514 1.73335 35.9746 1.72654C36.0937 1.72484 36.1435 1.77927 36.1398 1.95277C36.1374 2.11265 36.0839 2.15347 35.9806 2.15007C35.751 2.14497 35.5201 2.15007 35.2904 2.14837Z" fill="#032D5F"/>
<path d="M6.7194 1.43737C6.35969 1.43737 6.36941 1.43737 6.36455 0.990028C6.36212 0.770609 6.4083 0.682162 6.56628 0.707675C6.63311 0.717881 6.70238 0.709376 6.77044 0.709376C7.05237 0.709376 7.1897 0.976421 7.06696 1.33531C6.9904 1.55473 6.81905 1.38124 6.7194 1.43737Z" fill="#032D5F"/>
<path d="M35.2784 0.710968C35.6539 0.710968 35.6441 0.710968 35.6405 1.18723C35.6393 1.40154 35.5797 1.45767 35.4436 1.43896C35.3768 1.43046 35.3075 1.43726 35.2395 1.43726C34.9466 1.43726 34.8214 1.20253 34.9357 0.823228C35.0086 0.5868 35.1811 0.772201 35.2784 0.710968Z" fill="#032D5F"/>
<path d="M6.71668 0.515476C6.62189 0.466149 6.46634 0.605625 6.46999 0.326674C6.47363 0.0817417 6.56599 -0.00330421 6.73248 9.76277e-05C6.89168 0.00349947 6.96824 0.09705 6.96945 0.321571C6.97067 0.634541 6.79689 0.447439 6.71668 0.515476Z" fill="#032D5F"/>
<path d="M35.2823 0.51544C35.1875 0.464413 35.0343 0.605589 35.0356 0.323236C35.0368 0.0697995 35.1328 -0.00163915 35.2981 0.00176269C35.4585 0.00516453 35.5362 0.0970142 35.5362 0.321536C35.5375 0.629402 35.3637 0.449104 35.2823 0.51544Z" fill="#032D5F"/>
<path d="M23.7705 16.7133C23.7571 18.9041 22.5297 20.6101 20.9645 20.5829C19.4175 20.5557 18.1876 18.7085 18.2302 16.596C18.2751 14.4035 19.4758 12.7434 21.0629 12.7621C22.5576 12.7774 23.7838 14.5668 23.7705 16.7133ZM20.2232 13.0597C20.6473 13.3251 21.0155 13.6976 21.3716 14.213C20.2693 14.3082 19.1853 14.3184 18.4258 15.6094C18.8111 15.2318 19.2145 14.9155 19.7164 14.8338C18.8572 17.659 18.7539 18.4602 19.1246 19.3583C19.0893 18.0247 19.1076 17.7679 19.2643 17.4362C19.9157 18.6762 20.5209 19.9961 21.7313 20.2836C21.3375 19.9825 20.9803 19.6202 20.6145 19.1065C21.2148 19.1099 21.741 19.0606 22.2563 18.8769C22.9064 18.6456 23.3706 18.2425 23.5882 17.6777C23.1944 18.1302 22.7837 18.4245 22.2842 18.518C22.7691 17.0433 23.3621 15.6485 22.8943 13.9902C22.9441 14.9818 22.9125 15.5074 22.7497 15.9122C22.0837 14.6484 21.4651 13.3064 20.2232 13.0597Z" fill="#032D5F"/>
</svg>
