<svg width="70" height="41" viewBox="0 0 70 41" fill="none" xmlns="http://www.w3.org/2000/svg">
<path d="M34.9985 40.9999C33.4227 40.9999 31.9017 40.2752 30.6034 38.8774C28.9162 37.0612 27.8286 34.3445 27.545 31.2275C27.385 29.4689 27.464 27.9407 27.7921 26.5581C27.9724 25.791 28.0027 25.0026 27.9906 24.0506C27.9845 23.6382 27.9845 23.2228 27.9825 22.8074C27.9784 21.9402 27.9764 21.0427 27.9359 20.1725C27.9177 19.7753 27.867 18.6383 28.5719 17.9015C27.6989 16.6341 26.8341 15.3212 25.9956 14.0508C25.9004 13.9052 25.8173 13.8507 25.6695 13.8264C23.6765 13.508 21.6855 13.1806 19.6945 12.8531L17.3208 12.462C16.8245 12.3801 16.3263 12.3013 15.8301 12.2194C14.9753 12.083 14.1186 11.9435 13.2639 11.798C13.1727 12.3043 12.8993 13.0896 12.0486 12.9714C11.6517 12.9168 11.2648 12.9168 10.9043 12.9714C10.323 13.0623 9.89563 12.7106 9.59587 11.9101C9.38118 11.3341 9.18674 10.8853 8.98623 10.5033C8.58925 9.74524 8.53659 8.93568 8.53456 8.31411C8.53456 7.9351 8.56292 7.50151 8.78369 7.17101C9.01053 6.83445 9.31637 6.79504 9.53511 6.8011C11.5909 6.82233 13.6811 6.82233 15.7045 6.81929L17.7218 6.81626C18.4408 6.81626 19.1598 6.81323 19.8789 6.8102C21.6896 6.8011 23.5631 6.792 25.4062 6.84355C26.0563 6.86174 26.664 6.55854 27.304 6.23714C27.4154 6.18256 27.5268 6.12495 27.6382 6.07037C28.7035 5.55189 29.7811 4.99702 30.8241 4.45731L31.3568 4.18139C31.6525 4.02979 31.9523 3.95398 32.2703 3.95398C32.2723 3.95398 32.2743 3.95398 32.2784 3.95398C33.1939 3.95702 34.1093 3.95702 35.0228 3.95398C35.837 3.95398 36.6512 3.95095 37.4654 3.95398C38.0791 3.95398 38.6037 4.25719 39.1121 4.5513C39.3025 4.66046 39.4848 4.76658 39.665 4.85148C40.5846 5.28506 41.5061 5.76716 42.3993 6.23107C42.7193 6.39784 43.0414 6.5646 43.3634 6.73136C43.5052 6.80413 43.6632 6.81929 43.8738 6.81929H48.1494C52.0909 6.81929 56.1619 6.81929 60.1662 6.80413C60.1682 6.80413 60.1702 6.80413 60.1722 6.80413C60.867 6.80413 61.193 7.28926 61.1991 8.32623C61.2032 9.14489 61.0472 9.85137 60.707 10.5487C60.6138 10.7398 60.5287 10.9763 60.4376 11.2249C60.231 11.7889 59.9981 12.4286 59.5829 12.7652C59.1737 13.0987 58.6978 13.0472 58.2765 13.0017C58.08 12.9805 57.8957 12.9592 57.7357 12.9774C56.8911 13.0684 56.563 12.4438 56.4435 11.8101C54.7928 12.089 53.14 12.3589 51.4893 12.6287C50.8959 12.7258 50.3025 12.8258 49.707 12.9229C48.0988 13.1927 46.436 13.4686 44.7954 13.6991C44.046 13.8052 43.6328 14.075 43.2723 14.6997C42.7295 15.6396 42.1279 16.5037 41.5446 17.3376C41.4595 17.4588 41.3765 17.5771 41.2935 17.6984C42.1968 18.6201 42.1137 20.1058 42.0834 20.6213C42.051 21.2035 42.053 21.7917 42.057 22.4132C42.0611 23.0621 42.0651 23.7352 42.0226 24.4084C41.978 25.133 42.1036 25.8365 42.2373 26.5823C42.3062 26.9674 42.377 27.3646 42.4277 27.78C43.1528 33.8108 40.4833 39.6476 36.475 40.7906C35.9788 40.9301 35.4866 40.9999 34.9985 40.9999ZM28.9972 24.9481C28.977 25.6394 28.9142 26.3519 28.7461 27.0675C28.4747 28.2166 28.4099 29.5113 28.5476 31.0243C28.7947 33.7259 29.7345 36.0788 31.1948 37.6494C32.6652 39.2322 34.4719 39.8204 36.2826 39.3019C39.7481 38.3134 42.055 33.265 41.4271 28.0499C41.3846 27.6982 41.3218 27.3464 41.255 26.9735C41.1051 26.1336 40.9512 25.2634 41.0099 24.2719C41.0464 23.6716 41.0423 23.0651 41.0403 22.4223C41.0362 21.7947 41.0342 21.1458 41.0707 20.4939C41.1294 19.4479 40.9309 19.0871 40.5704 18.8202C40.2929 18.6141 40.1329 18.326 40.0944 17.9652C40.0357 17.4043 40.3152 17.001 40.4205 16.8464C40.5603 16.6432 40.7 16.4431 40.8418 16.2399C41.4069 15.4304 41.9922 14.5905 42.5026 13.7051C43.173 12.5438 43.9872 12.2861 44.6982 12.1861C46.3306 11.9587 47.9874 11.6797 49.5915 11.4129C50.187 11.3128 50.7804 11.2128 51.3759 11.1157C53.0489 10.8429 54.7239 10.5669 56.3969 10.285C57.2131 10.1515 57.3731 11.0278 57.4015 11.3007C57.4116 11.4008 57.4258 11.4432 57.4299 11.4553C57.4319 11.4523 57.4663 11.4644 57.5493 11.4644C57.5797 11.4644 57.6142 11.4614 57.6587 11.4584C57.8937 11.4341 58.1246 11.4584 58.3474 11.4826C58.6431 11.516 58.9469 11.5493 59.0968 11.428C59.2487 11.3037 59.4006 10.8914 59.5464 10.4942C59.6497 10.2122 59.755 9.9211 59.8867 9.65125C60.0973 9.21766 60.1864 8.82653 60.1844 8.33533C60.1844 8.32927 60.1844 8.3232 60.1844 8.31714C60.1804 8.31714 60.1743 8.31714 60.1682 8.31714C56.1619 8.3323 52.0889 8.3323 48.1494 8.3323H43.8738C43.6085 8.3323 43.3249 8.31107 43.0333 8.1625C42.7112 7.99574 42.3892 7.82897 42.0672 7.65918C41.1821 7.1983 40.2686 6.71924 39.3632 6.29475C39.1526 6.19469 38.948 6.07644 38.7495 5.96425C38.308 5.70955 37.8928 5.47002 37.4654 5.47002C36.6512 5.46699 35.839 5.47002 35.0248 5.47002C34.1093 5.47002 33.1918 5.47305 32.2764 5.47002C32.2743 5.47002 32.2743 5.47002 32.2723 5.47002C32.0677 5.47002 31.8773 5.51853 31.689 5.61556L31.1563 5.89148C30.1092 6.43119 29.0256 6.99212 27.9521 7.51364C27.8427 7.56518 27.7354 7.61976 27.626 7.67434C26.9333 8.02303 26.2163 8.38384 25.3879 8.35959C23.555 8.30804 21.6875 8.32017 19.8829 8.32623C19.1619 8.32927 18.4428 8.3323 17.7218 8.3323L15.7065 8.33533C13.6892 8.33836 11.603 8.34139 9.54929 8.32017C9.55131 8.90233 9.61815 9.25405 9.78626 9.57242C10.0192 10.0181 10.242 10.5275 10.483 11.1734C10.5944 11.4735 10.6552 11.4917 10.8071 11.4675C11.2344 11.4038 11.6841 11.4038 12.1459 11.4675C12.2167 11.4766 12.2593 11.4735 12.2816 11.4675C12.2856 11.4493 12.2917 11.4189 12.2957 11.3765C12.3403 11.0036 12.5327 10.1515 13.351 10.291C14.2138 10.4396 15.0786 10.5791 15.9415 10.7155C16.4397 10.7943 16.938 10.8762 17.4362 10.9581L19.808 11.3492C21.7989 11.6767 23.7879 12.0041 25.7789 12.3225C26.1596 12.3831 26.4574 12.5954 26.7186 12.9896C27.5956 14.3206 28.501 15.6942 29.4124 17.0101C29.5198 17.1647 29.8033 17.5741 29.7486 18.1532C29.694 18.7202 29.3577 18.9809 29.2484 19.0658C29.0236 19.2417 28.9223 19.4358 28.9506 20.0755C28.9911 20.9882 28.9952 21.9099 28.9992 22.8014C29.0013 23.1652 29.0013 23.5291 29.0053 23.8929L29.1228 22.8044C29.1491 22.5679 29.1694 22.3496 29.1876 22.1434C29.2301 21.6946 29.2686 21.2732 29.3436 20.8578C29.4853 20.0786 29.9249 19.7511 30.2145 19.5328C30.259 19.4994 30.3036 19.4661 30.3461 19.4327C30.5892 19.2356 30.9538 19.1568 31.3244 19.8906C31.3406 19.9239 31.3568 19.9573 31.373 19.9846C31.6464 20.2847 31.6829 20.6455 31.6789 20.8366C31.6748 21.0306 31.6242 21.3945 31.3285 21.6734C30.8889 22.0828 30.5122 22.6558 30.0363 23.3774L28.9972 24.9481ZM34.9985 38.7743C31.6687 38.7743 28.9608 34.7113 28.9587 29.7205C28.9587 27.307 29.5866 25.036 30.7269 23.3289C31.8672 21.6219 33.3842 20.6789 34.9965 20.6789C38.3323 20.6789 41.0504 24.7207 41.0524 29.6872C41.0545 32.125 40.4266 34.4081 39.2863 36.1182C38.146 37.8313 36.6229 38.7743 34.9985 38.7743ZM34.9965 21.4369V22.1949C33.6536 22.1949 32.3918 22.9772 31.4419 24.3993C30.492 25.8213 29.9694 27.7103 29.9714 29.7175C29.9714 33.8745 32.2277 37.2552 34.9985 37.2552C36.3515 37.2552 37.6194 36.4699 38.5693 35.0449C39.5192 33.6198 40.0417 31.7156 40.0397 29.6842C40.0377 25.5514 37.7753 22.1919 34.9965 22.1919V21.4369ZM40.8884 24.7965L39.985 23.3774C39.4139 22.48 38.9723 21.913 38.5065 21.4763C38.0407 21.0458 38.1602 20.4333 38.2088 20.2574C38.3343 19.7905 38.5875 19.4418 38.8994 19.2993C39.2032 19.1629 39.5293 19.2417 39.7947 19.5146C40.7 20.4454 40.8276 21.0246 40.856 22.8377L40.8884 24.7965Z" fill="#032D5F"/>
<path d="M70.0001 1.26758C69.8786 1.71026 69.6882 1.7709 69.4614 1.78909C66.397 2.03166 63.3325 2.28332 60.2681 2.53498C59.8022 2.5744 59.5713 2.06805 59.7638 1.43434C59.8103 1.28274 59.8873 1.27971 59.9703 1.27364C60.0838 1.26758 60.1992 1.26758 60.3126 1.26758C63.369 1.26758 66.4273 1.26758 69.4837 1.26758C69.6396 1.26758 69.7956 1.26758 70.0001 1.26758Z" fill="#032D5F"/>
<path d="M0 1.26742C0.172159 1.26742 0.295709 1.26742 0.421284 1.26742C3.54648 1.26742 6.67168 1.26742 9.79688 1.27348C9.94271 1.27348 10.1696 1.14917 10.2182 1.40993C10.2769 1.72526 10.2647 2.09517 10.2182 2.42264C10.1858 2.65004 9.9974 2.54392 9.8779 2.53483C8.19681 2.40445 6.51775 2.268 4.83667 2.13156C3.41483 2.01937 1.99097 1.89809 0.567113 1.79197C0.338243 1.77681 0.147855 1.71617 0 1.26742Z" fill="#032D5F"/>
<path d="M47.654 1.34635C47.7654 1.22203 47.8829 1.27358 47.9902 1.27358C51.1336 1.27055 54.2791 1.26751 57.4225 1.27661C57.5643 1.27661 57.7871 1.1432 57.8337 1.43428C57.8863 1.75568 57.8722 2.11953 57.8296 2.45002C57.8053 2.63498 57.6291 2.55311 57.5238 2.54402C55.8265 2.41061 54.1292 2.27113 52.4319 2.13469C51.0202 2.01947 49.6085 1.89515 48.1968 1.79206C47.9578 1.77084 47.7472 1.74355 47.654 1.34635Z" fill="#032D5F"/>
<path d="M22.385 1.30976C22.2635 1.65845 22.1176 1.7676 21.911 1.78276C19.6892 1.95256 17.4673 2.12842 15.2454 2.30428C14.334 2.37705 13.4226 2.45891 12.5111 2.54381C12.2924 2.56504 12.0899 2.5711 12.1486 2.10719C12.1911 1.77973 11.9663 1.25821 12.4686 1.26124C15.7093 1.2764 18.9479 1.27034 22.1885 1.27034C22.2452 1.27034 22.2979 1.29156 22.385 1.30976Z" fill="#032D5F"/>
<path d="M11.2776 6.93431C10.8198 6.93431 10.4492 6.91915 10.0785 6.94038C9.85776 6.95251 9.75447 6.84335 9.7808 6.50679C9.78282 6.48557 9.7808 6.46434 9.7808 6.44312C9.79092 5.73968 9.62686 4.82702 9.85979 4.39344C10.1049 3.93559 10.7408 4.28428 11.2067 4.25396C11.5915 4.22667 11.9763 4.26003 12.3612 4.24487C12.5434 4.2388 12.6265 4.34189 12.6123 4.61478C12.6103 4.65723 12.6143 4.69968 12.6123 4.74213C12.5921 5.44253 12.8047 6.34306 12.5374 6.78877C12.268 7.24359 11.6543 6.86154 11.2776 6.93431Z" fill="#032D5F"/>
<path d="M58.8503 4.24476C59.1926 4.24476 59.5369 4.27508 59.8792 4.23566C60.1789 4.20231 60.2519 4.39333 60.2336 4.79053C60.2032 5.46971 60.4159 6.33992 60.1546 6.7826C59.8853 7.23741 59.2938 6.88569 58.8442 6.92814C58.6032 6.9524 58.3581 6.93117 58.1151 6.93117C57.4001 6.93117 57.4001 6.93117 57.4001 5.8275C57.4001 4.24172 57.4001 4.24172 58.4634 4.24172C58.593 4.24476 58.7227 4.24476 58.8503 4.24476Z" fill="#032D5F"/>
<path d="M11.1967 3.83268C10.8119 3.83268 10.4291 3.82662 10.0442 3.83571C9.87613 3.83874 9.77689 3.79023 9.77689 3.49006C9.77689 3.19898 9.83157 3.07466 10.0442 3.07769C10.8119 3.09285 11.5795 3.09285 12.3491 3.07769C12.5557 3.07466 12.6226 3.19291 12.6206 3.49006C12.6185 3.7872 12.5152 3.83874 12.3491 3.83571C11.9663 3.82662 11.5815 3.83268 11.1967 3.83268Z" fill="#032D5F"/>
<path d="M58.8177 3.82969C58.4349 3.82969 58.05 3.8115 57.6672 3.83576C57.4546 3.84789 57.3999 3.72357 57.3979 3.42946C57.3958 3.13838 57.4829 3.07471 57.6571 3.07774C58.4247 3.08683 59.1903 3.08987 59.958 3.07774C60.1565 3.07471 60.2395 3.17173 60.2334 3.481C60.2294 3.76602 60.1403 3.83879 59.9681 3.83272C59.5853 3.82363 59.2005 3.83272 58.8177 3.82969Z" fill="#032D5F"/>
<path d="M11.1985 2.56226C10.599 2.56226 10.6152 2.56226 10.6071 1.76483C10.6031 1.37369 10.68 1.21602 10.9433 1.2615C11.0547 1.27969 11.1702 1.26453 11.2836 1.26453C11.7535 1.26453 11.9824 1.74057 11.7778 2.38034C11.6502 2.77147 11.3646 2.4622 11.1985 2.56226Z" fill="#032D5F"/>
<path d="M58.7976 1.26736C59.4234 1.26736 59.4072 1.26736 59.4011 2.11634C59.3991 2.49839 59.2999 2.59844 59.073 2.56509C58.9616 2.54993 58.8462 2.56206 58.7328 2.56206C58.2446 2.56206 58.036 2.14363 58.2264 1.46748C58.3479 1.04602 58.6355 1.37652 58.7976 1.26736Z" fill="#032D5F"/>
<path d="M11.194 0.918892C11.036 0.830962 10.7768 1.07959 10.7829 0.582332C10.7889 0.145714 10.9429 -0.00589012 11.2203 0.000174032C11.4857 0.00623818 11.6133 0.173002 11.6153 0.573236C11.6173 1.13114 11.3277 0.797609 11.194 0.918892Z" fill="#032D5F"/>
<path d="M58.8036 0.91882C58.6456 0.827858 58.3904 1.07952 58.3924 0.576196C58.3945 0.124417 58.5545 -0.00292992 58.8299 0.00313423C59.0973 0.00919838 59.2269 0.17293 59.2269 0.573164C59.2289 1.12197 58.9393 0.80057 58.8036 0.91882Z" fill="#032D5F"/>
<path d="M39.6172 29.7933C39.5949 33.6986 37.5493 36.7398 34.9406 36.6913C32.3622 36.6428 30.3125 33.3499 30.3834 29.5841C30.4583 25.6757 32.4594 22.7164 35.1046 22.7498C37.5959 22.7771 39.6395 25.9668 39.6172 29.7933ZM33.7051 23.2804C34.4119 23.7534 35.0256 24.4174 35.6191 25.3361C33.782 25.5059 31.9754 25.5241 30.7095 27.8255C31.3515 27.1524 32.024 26.5884 32.8605 26.4429C31.4285 31.4791 31.2563 32.9072 31.8741 34.5082C31.8154 32.131 31.8457 31.6732 32.107 31.0819C33.1926 33.2923 34.2013 35.6452 36.2186 36.1576C35.5624 35.6209 34.9669 34.9751 34.3572 34.0594C35.3578 34.0655 36.2348 33.9776 37.0936 33.6501C38.1771 33.2377 38.9509 32.5191 39.3134 31.5125C38.6572 32.319 37.9726 32.8436 37.1401 33.0103C37.9483 30.3815 38.9367 27.8952 38.1569 24.9389C38.2399 26.7066 38.1873 27.6436 37.9159 28.3652C36.8059 26.1124 35.775 23.7201 33.7051 23.2804Z" fill="#032D5F"/>
</svg>
