<svg width="48" height="33" viewBox="0 0 48 33" fill="none" xmlns="http://www.w3.org/2000/svg">
<g clip-path="url(#clip0_1_58)">
<path d="M23.9745 33.0001C17.023 33.0001 10.074 33.0045 3.12246 32.9979C0.633719 32.9957 0.00971218 32.445 0.00728413 30.1984C-0.00242804 22.9099 -0.00242804 15.6236 0.00728413 8.33512C0.00971218 7.44436 0.143255 6.21352 1.19703 5.8208C1.57337 5.68038 1.98614 5.65405 2.39162 5.63211C5.31256 5.48073 8.24806 5.50925 11.1714 5.55313C12.7594 5.57726 15.0029 5.9305 15.3622 4.0283C16.2363 -0.592275 15.6075 0.0527619 20.6675 0.0132698C23.586 -0.00867023 26.5045 0.00229979 29.423 0.0132698C30.2996 0.0176578 31.3023 0.0264338 31.8025 0.781171C32.2784 1.5008 32.4192 2.34111 32.5261 3.15947C32.6111 3.81109 32.5576 4.70185 33.1209 5.20209C33.6503 5.6716 34.6433 5.73742 35.2989 5.46537C36.0807 5.14066 36.3502 4.3574 36.9743 3.8813C37.7002 3.3306 38.8657 3.06074 39.7932 3.05635C40.66 3.05416 41.6094 3.29769 42.2771 3.81767C42.9594 4.34862 43.3406 5.09897 44.239 5.41929C44.744 5.5992 45.3 5.61017 45.839 5.6738C46.3781 5.73742 46.9414 5.86906 47.3153 6.22449C47.9296 6.81029 47.9296 7.78224 47.9757 8.53478C48.0558 9.79852 47.9296 11.0623 47.9296 12.3238C47.932 14.1646 47.932 16.0054 47.932 17.8439C47.932 21.5255 47.9296 25.2048 47.9247 28.8864C47.9247 29.3646 47.9223 29.8429 47.9223 30.3212C47.9174 32.3924 47.2522 32.9913 44.9868 32.9935C37.9843 33.0045 30.9794 33.0001 23.9745 33.0001ZM24.0741 7.2842C17.5475 7.2842 11.0185 7.27762 4.49188 7.28858C2.26294 7.29297 1.78704 7.723 1.78461 9.75464C1.77247 16.1809 1.77247 22.6049 1.78461 29.0312C1.78947 30.9377 2.3115 31.4095 4.43361 31.4117C17.4358 31.4204 30.4355 31.4204 43.4377 31.4117C45.6375 31.4095 46.145 30.9421 46.1474 28.939C46.1571 22.561 46.1571 16.1831 46.1474 9.80511C46.145 7.69447 45.6909 7.29078 43.3357 7.28639C36.916 7.27761 30.4962 7.2842 24.0741 7.2842ZM23.8652 5.54655C25.662 5.54655 27.4587 5.55313 29.2579 5.54216C29.7217 5.53996 30.234 5.58604 30.4817 5.08142C31.113 3.8089 29.7435 1.84087 28.1969 1.8321C25.6596 1.81893 23.1223 1.82552 20.585 1.82771C17.9044 1.8299 17.9578 1.83868 17.4892 4.18846C17.278 5.25694 17.6932 5.57726 18.7906 5.55752C20.483 5.5268 22.1753 5.54874 23.8652 5.54655Z" fill="#032D5F"/>
<path d="M23.8628 10.2723C18.997 10.2701 14.1312 10.2701 9.26541 10.2679C8.78466 10.2679 8.3039 10.2767 7.82072 10.2789C7.0219 10.2832 6.22064 10.2569 5.42182 10.2613C4.87793 10.2635 4.4336 10.1823 4.45545 9.59653C4.48459 9.02389 5.0139 8.94271 5.54079 8.95368C10.0812 9.04364 14.6338 8.96685 19.1767 8.96685C24.6204 8.96685 30.0616 8.96685 35.5053 8.96685C37.8581 8.96685 40.2133 8.96246 42.566 8.96904C43.1099 8.97123 43.6004 9.31569 43.3794 9.85981C43.1682 10.382 42.3451 10.3951 41.8376 10.3908C41.0097 10.3842 40.1841 10.3096 39.3537 10.3008C35.0755 10.3008 30.7997 10.2657 26.5215 10.2723C26.2229 10.2723 25.9242 10.2723 25.6256 10.2723C25.038 10.2745 24.4504 10.2723 23.8628 10.2723Z" fill="#032D5F"/>
<path d="M24.1056 28.4999C29.8285 28.4999 35.5538 28.4999 41.2767 28.4999C41.7016 28.4999 42.1241 28.4977 42.549 28.5219C42.9812 28.5438 43.4523 28.5965 43.479 29.1033C43.5033 29.5969 43.0662 29.7308 42.6243 29.7703C42.2042 29.8076 41.7769 29.8054 41.3544 29.8054C29.7484 29.8076 18.1423 29.8141 6.53628 29.7878C5.78602 29.7856 4.48216 30.1762 4.48944 29.0989C4.4943 28.1489 5.75445 28.5219 6.46101 28.5175C12.3393 28.4846 18.2225 28.4999 24.1056 28.4999Z" fill="#032D5F"/>
<path d="M35.9448 23.2059C36.0322 22.1572 36.1414 21.1107 36.1997 20.0597C36.275 18.7324 36.36 17.4949 35.0974 16.3716C33.9173 15.3185 34.2257 13.221 35.3984 12.3259C36.3842 11.5733 37.4404 11.5711 38.4238 12.3346C39.5213 13.1859 39.7786 15.3777 38.6933 16.4199C37.7755 17.3019 37.6565 18.2255 37.7124 19.294C37.8022 21.0141 37.8799 22.7342 37.9309 24.4543C37.9455 24.9282 37.8799 25.4087 37.7852 25.876C37.7051 26.271 37.4574 26.6001 36.9475 26.6132C36.3454 26.6286 36.0734 26.2446 36.0443 25.7927C35.9909 24.9348 36.0297 24.0726 36.0297 23.2125C36.0006 23.2081 35.9715 23.2059 35.9448 23.2059Z" fill="#032D5F"/>
<path d="M9.52035 23.2059C9.60776 22.1572 9.71702 21.1107 9.77529 20.0597C9.85056 18.7324 9.93554 17.4949 8.67296 16.3716C7.49293 15.3185 7.80129 13.221 8.97404 12.3259C9.95982 11.5733 11.016 11.5711 11.9994 12.3346C13.0969 13.1859 13.3542 15.3777 12.2689 16.4199C11.3511 17.3019 11.2321 18.2255 11.288 19.294C11.3778 21.0141 11.4555 22.7342 11.5065 24.4543C11.5211 24.9282 11.4555 25.4087 11.3608 25.876C11.2807 26.271 11.033 26.6001 10.5231 26.6132C9.92098 26.6286 9.64903 26.2446 9.6199 25.7927C9.56648 24.9348 9.60533 24.0726 9.60533 23.2125C9.57619 23.2081 9.54948 23.2059 9.52035 23.2059Z" fill="#032D5F"/>
<path d="M32.3585 19.134C32.3634 23.5966 28.464 27.1663 23.62 27.1356C18.8149 27.1048 14.9762 23.5922 14.9592 19.2108C14.9446 14.7482 18.8125 11.2181 23.6953 11.2378C28.5198 11.2576 32.3537 14.7504 32.3585 19.134ZM23.569 25.6392C27.585 25.6634 30.8094 22.8682 30.8847 19.2986C30.96 15.6785 27.7258 12.7341 23.6661 12.7319C19.6623 12.7297 16.4573 15.5666 16.4306 19.1384C16.4014 22.7081 19.5967 25.6151 23.569 25.6392Z" fill="#032D5F"/>
<path d="M17.8874 18.5197C17.8558 16.3169 20.8326 13.7082 23.2218 13.8421C23.722 13.8706 24.2173 13.9474 24.2853 14.4937C24.3533 15.0466 23.8847 15.2484 23.3966 15.3186C21.2065 15.6302 19.8493 16.6833 19.536 18.7281C19.4681 19.1713 19.2665 19.6211 18.6668 19.5816C17.9772 19.5333 17.902 19.0221 17.8874 18.5197Z" fill="#032D5F"/>
</g>
<defs>
<clipPath id="clip0_1_58">
<rect width="48" height="33" fill="white"/>
</clipPath>
</defs>
</svg>
