<svg width="46" height="35" viewBox="0 0 46 35" fill="none" xmlns="http://www.w3.org/2000/svg">
<g clip-path="url(#clip0_1_25)">
<path d="M22.9756 35.0001C16.3137 35.0001 9.65421 35.0048 2.99236 34.9978C0.607314 34.9955 0.0093075 34.4114 0.00698063 32.0286C-0.00232688 24.2984 -0.00232688 16.5705 0.00698063 8.84029C0.0093075 7.89553 0.137286 6.5901 1.14715 6.17357C1.50782 6.02465 1.90338 5.99672 2.29197 5.97345C5.0912 5.81289 7.9044 5.84314 10.706 5.88968C12.2277 5.91528 14.3778 6.28992 14.7221 4.27244C15.5598 -0.628168 14.9572 0.0559612 19.8064 0.0140757C22.6033 -0.00919408 25.4002 0.00244079 28.1971 0.0140757C29.0371 0.0187296 29.9981 0.0280375 30.4774 0.828516C30.9335 1.59176 31.0684 2.48299 31.1708 3.35096C31.2523 4.04207 31.2011 4.98682 31.7409 5.51737C32.2482 6.01534 33.1999 6.08515 33.8281 5.7966C34.5774 5.45221 34.8357 4.62148 35.4337 4.11653C36.1294 3.53246 37.2463 3.24624 38.1352 3.24159C38.9659 3.23926 39.8757 3.49755 40.5156 4.04905C41.1694 4.61217 41.5347 5.408 42.3957 5.74774C42.8797 5.93855 43.4125 5.95018 43.9291 6.01767C44.4456 6.08515 44.9855 6.22477 45.3438 6.60174C45.9325 7.22304 45.9325 8.25389 45.9767 9.05204C46.0535 10.3924 45.9325 11.7327 45.9325 13.0707C45.9348 15.0231 45.9348 16.9754 45.9348 18.9254C45.9348 22.83 45.9325 26.7324 45.9279 30.637C45.9279 31.1443 45.9255 31.6516 45.9255 32.1589C45.9209 34.3555 45.2833 34.9908 43.1123 34.9931C36.4016 35.0048 29.6886 35.0001 22.9756 35.0001ZM23.071 7.72567C16.8163 7.72567 10.5594 7.71868 4.30472 7.73032C2.16865 7.73497 1.71258 8.19106 1.71025 10.3458C1.69862 17.1615 1.69862 23.9749 1.71025 30.7906C1.71491 32.8128 2.21519 33.3131 4.24887 33.3154C16.7093 33.3247 29.1674 33.3247 41.6278 33.3154C43.7359 33.3131 44.2223 32.8174 44.2246 30.6929C44.2339 23.9284 44.2339 17.1639 44.2246 10.3994C44.2223 8.16081 43.7871 7.73265 41.5301 7.72799C35.3778 7.71868 29.2256 7.72567 23.071 7.72567ZM22.8709 5.8827C24.5927 5.8827 26.3146 5.88968 28.0388 5.87805C28.4833 5.87572 28.9743 5.92459 29.2116 5.38938C29.8166 4.03974 28.5042 1.95244 27.022 1.94314C24.5904 1.92917 22.1588 1.93616 19.7272 1.93848C17.1584 1.94081 17.2096 1.95012 16.7605 4.44231C16.558 5.57554 16.9559 5.91528 18.0077 5.89434C19.6295 5.86176 21.2514 5.88503 22.8709 5.8827Z" fill="#8A8A8A"/>
<path d="M22.8685 10.8948C18.2055 10.8925 13.5424 10.8925 8.87935 10.8902C8.41863 10.8902 7.95791 10.8995 7.49486 10.9018C6.72932 10.9065 5.96145 10.8785 5.19591 10.8832C4.67469 10.8855 4.24887 10.7994 4.26981 10.1781C4.29774 9.57079 4.805 9.48469 5.30993 9.49632C9.66118 9.59173 14.0241 9.51029 18.3777 9.51029C23.5945 9.51029 28.809 9.51029 34.0259 9.51029C36.2806 9.51029 38.5377 9.50563 40.7924 9.51261C41.3137 9.51494 41.7837 9.88027 41.572 10.4574C41.3695 11.0112 40.5807 11.0251 40.0944 11.0205C39.3009 11.0135 38.5098 10.9344 37.714 10.9251C33.614 10.9251 29.5164 10.8879 25.4165 10.8948C25.1303 10.8948 24.844 10.8948 24.5578 10.8948C23.9947 10.8972 23.4316 10.8948 22.8685 10.8948Z" fill="#8A8A8A"/>
<path d="M23.1012 30.2272C28.5857 30.2272 34.0724 30.2272 39.5569 30.2272C39.9641 30.2272 40.369 30.2249 40.7762 30.2505C41.1904 30.2737 41.6418 30.3296 41.6674 30.8671C41.6906 31.3907 41.2718 31.5326 40.8483 31.5745C40.4458 31.6141 40.0362 31.6117 39.6314 31.6117C28.5089 31.6141 17.3864 31.6211 6.26395 31.5931C5.54495 31.5908 4.29542 32.005 4.3024 30.8625C4.30705 29.8549 5.5147 30.2505 6.19182 30.2458C11.8252 30.2109 17.4632 30.2272 23.1012 30.2272Z" fill="#8A8A8A"/>
<path d="M34.4471 24.6123C34.5308 23.5001 34.6356 22.3901 34.6914 21.2755C34.7635 19.8677 34.845 18.5552 33.635 17.3638C32.5041 16.2469 32.7996 14.0223 33.9235 13.0729C34.8682 12.2747 35.8804 12.2724 36.8228 13.0822C37.8746 13.9851 38.1212 16.3097 37.0811 17.415C36.2015 18.3505 36.0875 19.3301 36.141 20.4634C36.2271 22.2877 36.3016 24.112 36.3505 25.9364C36.3644 26.439 36.3016 26.9486 36.2108 27.4443C36.1341 27.8631 35.8967 28.2122 35.4081 28.2261C34.831 28.2424 34.5704 27.8352 34.5425 27.3558C34.4913 26.446 34.5285 25.5315 34.5285 24.6193C34.5006 24.6147 34.4727 24.6123 34.4471 24.6123Z" fill="#8A8A8A"/>
<path d="M9.12368 24.6123C9.20745 23.5001 9.31216 22.3901 9.368 21.2755C9.44013 19.8677 9.52158 18.5552 8.3116 17.3638C7.18074 16.2469 7.47625 14.0223 8.60013 13.0729C9.54484 12.2747 10.557 12.2724 11.4994 13.0822C12.5512 13.9851 12.7978 16.3097 11.7577 17.415C10.8781 18.3505 10.7641 19.3301 10.8176 20.4634C10.9037 22.2877 10.9782 24.112 11.0271 25.9364C11.041 26.439 10.9782 26.9486 10.8875 27.4443C10.8107 27.8631 10.5733 28.2122 10.0847 28.2261C9.50761 28.2424 9.247 27.8352 9.21908 27.3558C9.16789 26.446 9.20512 25.5315 9.20512 24.6193C9.1772 24.6147 9.1516 24.6123 9.12368 24.6123Z" fill="#8A8A8A"/>
<path d="M31.0103 20.2937C31.0149 25.0267 27.278 28.8127 22.6358 28.7801C18.031 28.7476 14.3522 25.0221 14.3359 20.3751C14.3219 15.6421 18.0286 11.898 22.708 11.9189C27.3315 11.9398 31.0056 15.6444 31.0103 20.2937ZM22.587 27.1931C26.4356 27.2187 29.5257 24.2542 29.5979 20.4682C29.67 16.6287 26.5706 13.5059 22.6801 13.5036C18.843 13.5012 15.7716 16.51 15.746 20.2983C15.718 24.0843 18.7802 27.1675 22.587 27.1931Z" fill="#8A8A8A"/>
<path d="M17.1421 19.6421C17.1119 17.3058 19.9646 14.539 22.2542 14.681C22.7336 14.7112 23.2083 14.7927 23.2734 15.3721C23.3386 15.9585 22.8895 16.1726 22.4218 16.247C20.3229 16.5775 19.0222 17.6944 18.722 19.8631C18.6569 20.3332 18.4638 20.8102 17.889 20.7683C17.2282 20.7171 17.1561 20.175 17.1421 19.6421Z" fill="#8A8A8A"/>
</g>
<defs>
<clipPath id="clip0_1_25">
<rect width="46" height="35" fill="white"/>
</clipPath>
</defs>
</svg>
