<svg width="45" height="40" viewBox="0 0 45 40" fill="none" xmlns="http://www.w3.org/2000/svg">
<path d="M44.6537 20.3409C44.4634 20.8753 44.1385 21.355 43.7084 21.7364C43.2624 22.0788 42.7104 22.2651 42.1418 22.2651C41.5732 22.2651 41.0212 22.0788 40.5752 21.7364C40.3992 21.6028 40.2317 21.459 40.0737 21.3057C34.7481 16.1369 29.4299 10.9682 24.1192 5.79945C23.1162 4.81738 22.2596 4.79585 21.2212 5.79945C15.8956 11.007 10.5434 16.1757 5.20891 21.366C4.42339 22.1284 3.5358 22.473 2.45293 22.1543C2.06992 22.0368 1.72161 21.8317 1.4373 21.5563C1.153 21.2809 0.941033 20.9432 0.819241 20.5717C0.697448 20.2002 0.669397 19.8057 0.737451 19.4215C0.805505 19.0373 0.967673 18.6745 1.2103 18.3638C1.34644 18.1891 1.49472 18.0236 1.6541 17.8685L17.8927 2.11243C18.5096 1.48581 19.2511 0.987065 20.0722 0.646316C20.8933 0.305566 21.7771 0.129883 22.6701 0.129883C23.5632 0.129883 24.447 0.305566 25.2681 0.646316C26.0892 0.987065 26.8307 1.48581 27.4476 2.11243C28.8944 3.51374 30.3397 4.91793 31.7835 6.32497C31.8869 6.4389 31.9819 6.55979 32.0676 6.68677L32.2007 6.62646V5.39459C32.2007 4.99401 32.2007 4.5891 32.2007 4.18852C32.1864 3.85832 32.2411 3.52876 32.3615 3.21959C32.4819 2.91043 32.6654 2.62807 32.9011 2.38953C33.1368 2.15098 33.4197 1.96117 33.7329 1.8315C34.0462 1.70183 34.3832 1.63496 34.7237 1.63496C35.0642 1.63496 35.4012 1.70183 35.7145 1.8315C36.0277 1.96117 36.3107 2.15098 36.5463 2.38953C36.782 2.62807 36.9656 2.91043 37.0859 3.21959C37.2063 3.52876 37.261 3.85832 37.2467 4.18852C37.2467 6.51015 37.2467 8.82748 37.2467 11.1448C37.2358 11.3 37.2608 11.4556 37.32 11.6002C37.3791 11.7448 37.4708 11.8747 37.5884 11.9804C39.5855 13.8929 41.556 15.8312 43.5486 17.7436C44.0342 18.1912 44.4076 18.7408 44.6404 19.3502L44.6537 20.3409Z" fill="#EF3D55"/>
<path d="M6.79293 30.4367C6.79293 28.7138 6.79293 26.9909 6.79293 25.268C6.78705 25.0468 6.8295 24.8268 6.91746 24.6227C7.00542 24.4185 7.13691 24.2348 7.30329 24.0835L21.6335 10.1882C22.3658 9.47745 23.0093 9.48176 23.7416 10.1882C28.508 14.8113 33.2744 19.433 38.0407 24.0533C38.2169 24.2141 38.3558 24.4094 38.4484 24.6262C38.5409 24.8431 38.585 25.0764 38.5777 25.311C38.5777 28.6836 38.5777 32.0562 38.5777 35.4288C38.5884 36.4509 38.2304 37.4445 37.5658 38.2374C36.9012 39.0303 35.9718 39.5727 34.9386 39.7706C34.5598 39.8405 34.1747 39.8736 33.7892 39.8697C31.6146 39.8697 29.4399 39.8697 27.2653 39.8697C26.857 39.8697 26.7772 39.7361 26.7816 39.37C26.7816 36.0534 26.7816 32.7368 26.7816 29.4202C26.7816 29.0541 26.6884 28.9507 26.3067 28.955C23.8895 28.9722 21.4723 28.9722 19.0551 28.955C18.669 28.955 18.5802 29.0627 18.5846 29.4202C18.5846 32.7411 18.5846 36.0577 18.5846 39.3743C18.5846 39.7448 18.5048 39.874 18.0965 39.8697C15.6955 39.8266 13.2901 39.9343 10.8892 39.8137C9.79743 39.7188 8.77902 39.2399 8.02548 38.4673C7.27194 37.6947 6.8352 36.6816 6.79737 35.6184C6.77518 33.8955 6.79737 32.1725 6.79737 30.4152L6.79293 30.4367Z" fill="#EF3D55"/>
</svg>
