<svg width="54" height="43" viewBox="0 0 54 43" fill="none" xmlns="http://www.w3.org/2000/svg">
<path d="M42.1643 28.7455C38.3553 28.7455 34.5482 28.7455 30.7393 28.748C30.5764 28.748 30.3928 28.6647 30.2754 28.9439C30.2281 29.0565 30.0653 28.9806 29.9555 28.9904C29.8381 29.0002 29.7075 28.9463 29.6488 29.1594C29.6223 29.2549 29.5352 29.2328 29.469 29.2328C29.2001 29.2353 28.9294 29.2304 28.6606 29.2353C28.5148 29.2377 28.4656 29.1765 28.4921 28.9708C28.5868 28.2533 28.6398 27.531 28.6455 26.8037C28.6511 25.9883 28.5943 25.1777 28.4902 24.3746C28.4675 24.2032 28.494 24.1297 28.6322 24.1321C28.9237 24.137 29.2172 24.1321 29.5087 24.1346C29.5523 24.1346 29.6261 24.1468 29.6337 24.1738C29.7037 24.475 29.8949 24.3795 30.0502 24.3917C30.1694 24.4015 30.2982 24.3599 30.3606 24.5631C30.3815 24.6292 30.461 24.6121 30.5159 24.6121C30.6389 24.6145 30.7639 24.6145 30.8869 24.6145C38.4254 24.6145 45.9619 24.6145 53.5004 24.6145C54.0872 24.6145 53.9926 24.5582 53.9964 25.2708C54.0021 26.2454 54.0002 27.2175 53.9964 28.1921C53.9945 28.7847 54.0475 28.7382 53.5894 28.7406C52.3531 28.7431 51.1188 28.7406 49.8826 28.7406C47.3098 28.7455 44.7371 28.7455 42.1643 28.7455Z" fill="#8A8A8A"/>
<path d="M18.417 39.3708C12.8228 39.2998 8.62574 33.4767 8.63899 26.6668C8.65225 19.6561 13.0367 14.002 18.4473 14.0118C23.9525 14.0216 28.2197 19.8986 28.2102 26.7256C28.1969 33.2588 24.1608 39.3023 18.417 39.3708ZM18.4322 38.2248C23.6477 38.1832 27.434 32.5756 27.3318 26.444C27.2333 20.5205 23.5039 15.1456 18.3981 15.1456C13.4854 15.1456 9.50226 20.3516 9.51362 26.7256C9.52498 33.0654 13.5403 38.242 18.4322 38.2248Z" fill="#8A8A8A"/>
<path d="M18.4187 0.00257302C20.2948 0.00257302 22.169 0.00257302 24.0451 0.00257302C24.1454 0.00257302 24.2476 0.000124297 24.348 0.00502175C24.8137 0.029509 25.1014 0.372331 25.1488 0.967371C25.1715 1.24163 25.1866 1.51833 25.198 1.79259C25.2983 4.21438 25.393 6.63617 25.4971 9.05796C25.5709 10.8113 25.6618 12.5645 25.7318 14.3203C25.764 15.1039 25.8076 14.9521 25.2529 14.9692C25.2188 14.9692 25.1847 14.9643 25.1525 14.9692C24.791 15.0231 24.49 14.8712 24.1795 14.6239C22.6214 13.38 20.9252 12.7041 19.0907 12.5939C16.7735 12.4543 14.6457 13.2037 12.6976 14.8149C12.567 14.9227 12.4421 14.9741 12.2887 14.9716C11.9858 14.9643 11.6829 14.9716 11.38 14.9692C11.1093 14.9643 11.1036 14.9618 11.1169 14.5945C11.1472 13.7252 11.1793 12.8535 11.2153 11.9842C11.274 10.6203 11.3384 9.25876 11.3989 7.89727C11.4671 6.34722 11.5315 4.79473 11.5958 3.24224C11.6242 2.56149 11.6602 1.8783 11.6735 1.19755C11.6867 0.560883 11.9347 -0.00967061 12.6238 0.000124297C14.5548 0.0172654 16.4858 0.00257302 18.4187 0.00257302Z" fill="#8A8A8A"/>
<path d="M0.0080607 18.1012C0.0080607 16.3136 0.0326714 14.526 0.000488177 12.7385C-0.0222294 11.4872 0.750168 10.3461 1.85008 10.3559C4.64813 10.3803 7.44618 10.3632 10.2442 10.3632C10.2669 10.3632 10.2897 10.3632 10.3124 10.3632C10.6418 10.3656 10.6418 10.3656 10.6437 10.7942C10.6456 11.3182 10.6399 11.8398 10.6456 12.3638C10.6475 12.545 10.6001 12.6356 10.4525 12.6258C10.3635 12.6185 10.2726 12.6258 10.1836 12.6258C7.50865 12.6258 4.83555 12.6258 2.16055 12.6258C1.70431 12.6258 1.74974 12.5915 1.74974 13.1743C1.74785 16.6344 1.74974 20.092 1.74974 23.552C1.74974 23.6671 1.74596 23.7847 1.74974 23.8998C1.75542 24.0663 1.69863 24.1348 1.57179 24.1348C1.11176 24.1324 0.649832 24.1324 0.189801 24.1348C0.0610684 24.1348 0.00616757 24.0638 0.011847 23.8998C0.0156332 23.7994 0.011847 23.6965 0.011847 23.5937C0.00616757 21.7645 0.00616757 19.9328 0.0080607 18.1012Z" fill="#8A8A8A"/>
<path d="M6.00021 42.9949C4.5955 42.9949 3.19269 42.9802 1.78799 42.9998C0.926613 43.012 0.207223 42.2431 0.0387342 41.2024C0.0122304 41.0432 0.0084441 40.8865 0.0084441 40.7273C0.0084441 37.0518 0.0084441 33.3763 0.0084441 29.7007C0.0084441 29.6273 0.0122304 29.5563 0.0084441 29.4828C0.000871578 29.3138 0.0690243 29.2477 0.192078 29.2477C0.652109 29.2477 1.11403 29.2477 1.57406 29.2477C1.70469 29.2477 1.75202 29.3383 1.74634 29.495C1.74255 29.6101 1.74634 29.7277 1.74634 29.8428C1.74634 33.2563 1.74634 36.6723 1.74634 40.0858C1.74634 40.1592 1.74634 40.2303 1.74634 40.3037C1.75013 40.7274 1.75013 40.7298 2.08142 40.7298C4.76588 40.7298 7.45035 40.7298 10.1348 40.7322C10.7292 40.7322 10.6327 40.6661 10.6403 41.3763C10.6441 41.8268 10.6365 42.2774 10.6422 42.728C10.6441 42.9092 10.5929 42.9998 10.4472 42.9949C10.3582 42.9924 10.2673 42.9973 10.1783 42.9973C8.785 42.9949 7.39355 42.9949 6.00021 42.9949Z" fill="#8A8A8A"/>
<path d="M30.8281 10.3631C32.2215 10.3631 33.6129 10.3606 35.0063 10.3631C36.0361 10.3655 36.748 11.203 36.8445 12.5277C36.8559 12.6722 36.854 12.8167 36.854 12.9636C36.854 16.5069 36.854 20.0527 36.854 23.596C36.854 23.6988 36.8502 23.7992 36.854 23.9021C36.8578 24.0661 36.801 24.1396 36.6741 24.1372C36.2141 24.1347 35.7541 24.1347 35.2921 24.1372C35.1672 24.1372 35.1028 24.0759 35.1066 23.9094C35.1085 23.7796 35.1047 23.6474 35.1047 23.5176C35.1047 20.1335 35.1047 16.7494 35.1047 13.3628C35.1047 13.2599 35.1047 13.1595 35.1047 13.0567C35.1009 12.6281 35.1009 12.6257 34.7677 12.6257C32.0606 12.6257 29.3553 12.6257 26.6481 12.6232C26.171 12.6232 26.2259 12.6918 26.2221 12.0576C26.2202 11.6217 26.2202 11.1858 26.2221 10.75C26.224 10.368 26.2278 10.3631 26.5175 10.3631C27.9525 10.3606 29.3912 10.3631 30.8281 10.3631Z" fill="#8A8A8A"/>
<path d="M30.8531 42.9948C29.4598 42.9948 28.0664 42.9948 26.6731 42.9948C26.5936 42.9948 26.5159 42.9874 26.4364 42.9948C26.2812 43.007 26.2149 42.9287 26.2168 42.7181C26.2244 42.1524 26.2225 41.5843 26.2168 41.0187C26.2149 40.8203 26.2623 40.715 26.4289 40.7322C26.5178 40.742 26.6087 40.7322 26.6977 40.7322C29.3613 40.7322 32.0231 40.7322 34.6867 40.7322C35.1221 40.7322 35.1013 40.786 35.1013 40.1837C35.1013 36.7677 35.1013 33.3517 35.1013 29.9382C35.1013 29.8353 35.0994 29.7349 35.1013 29.6321C35.1089 29.255 35.1089 29.2501 35.408 29.2476C35.7904 29.2427 36.1728 29.2427 36.5533 29.2476C36.8449 29.2525 36.8449 29.2574 36.8506 29.6468C36.8506 29.7055 36.8506 29.7619 36.8506 29.8206C36.8506 33.337 36.8506 36.8558 36.8506 40.3722C36.8506 40.6342 36.843 40.8938 36.8108 41.1533C36.6821 42.1353 36.0346 42.9091 35.266 42.9874C35.1429 42.9997 35.0199 42.9972 34.8949 42.9972C33.5508 42.9948 32.201 42.9948 30.8531 42.9948Z" fill="#8A8A8A"/>
<path d="M33.5676 17.2515C33.5676 17.8049 33.5714 18.3558 33.5657 18.9092C33.56 19.5214 33.2912 19.8912 32.8141 19.901C31.9603 19.9181 31.1065 19.9157 30.2527 19.901C29.7643 19.8936 29.4822 19.5165 29.4765 18.8848C29.469 17.7951 29.469 16.7054 29.4765 15.6157C29.4803 14.9815 29.7643 14.6142 30.2527 14.6068C31.1065 14.597 31.9603 14.597 32.8141 14.6068C33.2912 14.6142 33.5543 14.9766 33.5657 15.5937C33.5657 15.6084 33.5657 15.623 33.5657 15.6377C33.5676 16.1765 33.5676 16.7152 33.5676 17.2515Z" fill="#8A8A8A"/>
<path d="M5.29005 9.36884C4.69561 9.36884 4.09927 9.37129 3.50483 9.3664C3.24547 9.36395 3.24168 9.35905 3.23979 9.02847C3.236 8.34528 3.24357 7.66208 3.236 6.98134C3.23411 6.75361 3.29848 6.68014 3.47075 6.68259C4.68425 6.68994 5.89585 6.68994 7.10935 6.68259C7.27973 6.68259 7.34788 6.75116 7.34599 6.98134C7.33653 7.67922 7.33842 8.37711 7.34599 9.07255C7.34788 9.29783 7.28541 9.37619 7.11124 9.37374C6.50355 9.36395 5.89585 9.36884 5.29005 9.36884Z" fill="#8A8A8A"/>
<path d="M7.82498 28.437C7.73411 28.4076 7.67732 28.3978 7.6262 28.3733C6.95414 28.0501 6.28397 27.7195 5.61002 27.4036C5.43964 27.3228 5.35823 27.2151 5.36391 26.9653C5.37716 26.385 5.36391 25.8046 5.36959 25.2267C5.37338 24.9108 5.37905 24.8986 5.61191 24.8961C6.28397 24.8912 6.95793 24.8912 7.62999 24.8961C7.8742 24.8986 7.8761 24.9084 7.85148 25.2169C7.78333 26.0985 7.78901 26.9824 7.82119 27.8664C7.82877 28.0378 7.82498 28.2093 7.82498 28.437Z" fill="#8A8A8A"/>
</svg>
