<svg width="40" height="37" viewBox="0 0 40 37" fill="none" xmlns="http://www.w3.org/2000/svg">
<path d="M17.8131 5.0769C18.1162 5.0769 18.3183 5.0769 18.5204 5.0769C21.7541 5.0769 24.9373 5.02787 28.171 5.0769C31.3036 5.17498 34.1836 6.00868 36.4068 8.31348C38.0236 9.93175 38.6804 12.0404 39.0341 14.1981C39.2868 15.7183 39.3878 17.2874 39.1352 18.9057C38.9331 18.7095 38.7815 18.6115 38.6299 18.4644C35.952 15.5221 32.4657 14.2471 28.4741 14.1981C25.0889 14.1491 21.7036 14.1981 18.3689 14.1981C17.9141 14.1981 17.712 14.3452 17.7626 14.7865C17.8131 15.375 17.7626 15.9634 17.7626 16.5518C17.712 18.4153 15.8425 19.5433 14.1247 18.6115C9.98149 16.3067 5.83835 14.0018 1.69519 11.648C0.0278199 10.7163 0.0278199 8.5586 1.69519 7.62688C5.83835 5.27303 9.98149 2.96825 14.1247 0.66345C15.8425 -0.268279 17.712 0.810541 17.7626 2.72304C17.8636 3.55669 17.8131 4.29229 17.8131 5.0769Z" fill="#EF3D55"/>
<path d="M0.836552 17.8265C1.19024 18.1698 1.49339 18.5131 1.84708 18.8564C4.07024 21.0141 6.74812 22.24 9.83023 22.338C13.7713 22.5342 17.7629 22.4361 21.7039 22.4361C21.805 22.4361 21.906 22.3871 22.0576 22.3871C22.0576 21.7006 22.0576 20.965 22.0576 20.2785C22.0576 18.1698 23.9776 17.0909 25.8471 18.1698C29.8892 20.4256 33.8808 22.6813 37.9229 24.9371C39.8429 26.016 39.8429 28.1246 37.9229 29.2034C33.8808 31.4592 29.8892 33.715 25.8471 35.9707C23.9776 37.0005 22.0576 35.9707 22.0576 33.8621C22.0576 33.1755 22.0576 32.44 22.0576 31.6553C21.7544 31.6553 21.5523 31.6553 21.2997 31.6553C18.066 31.6553 14.8829 31.7044 11.6492 31.6553C9.27446 31.6063 7.0513 30.9689 5.08077 29.7429C3.76709 28.9092 2.75655 27.7813 2.09971 26.4083C0.735499 23.7111 0.482874 20.8179 0.684979 17.8756C0.684979 17.8756 0.735499 17.8756 0.836552 17.8265Z" fill="#EF3D55"/>
</svg>
