<svg width="39" height="38" viewBox="0 0 39 38" fill="none" xmlns="http://www.w3.org/2000/svg">
<path d="M36.2158 21.7936C38.8093 21.73 38.8235 21.6637 38.8235 19.0664C38.8235 16.4609 38.8235 16.4581 36.0079 16.2095C35.6293 16.1763 35.3047 16.1763 35.0969 15.7425C34.4393 14.3776 34.5902 13.7918 35.9026 12.9877C37.2179 12.1837 37.3602 11.6228 36.5716 10.2938C36.3609 9.93733 36.1417 9.58366 35.9282 9.22999C34.8436 7.45335 34.4564 7.27099 32.7141 8.34306C31.6721 8.98685 31.2479 8.42042 30.5932 7.86505C29.8729 7.25718 29.8615 6.73496 30.391 6.01933C30.8209 5.4308 31.3647 4.69583 30.8209 4.0106C29.9156 2.86946 28.5861 2.18698 27.1684 1.88029C25.9727 1.62056 25.6424 2.75617 25.2211 3.53259C24.8197 4.27032 24.2788 4.14599 23.6781 3.93599C23.0688 3.72048 22.3002 3.83652 22.2461 2.7838C22.1151 0.203116 22.0525 0.266666 19.3223 0.186538C17.0164 0.120225 16.1993 0.545734 16.4868 2.72578C16.6349 3.86968 15.6812 3.75916 15.0378 3.98573C14.4058 4.20954 13.8876 4.2869 13.4179 3.52154C12.1567 1.47136 11.9318 1.4603 9.78242 2.67881C9.53759 2.81696 9.28991 2.94682 9.04793 3.0905C7.53054 3.98297 7.29994 4.51071 8.31343 5.94473C9.08494 7.03613 8.44154 7.47822 7.81807 8.21043C7.10635 9.04487 6.60245 8.68291 5.90781 8.29056C4.41605 7.44783 3.82674 7.62466 2.92713 9.06421C2.68514 9.4538 2.44885 9.84892 2.2211 10.2468C1.40974 11.6725 1.51792 12.2251 2.97552 13.0264C3.88368 13.5238 4.17121 13.9935 3.89507 15.0794C3.60184 16.2233 2.95559 16.215 2.06167 16.2205C0.444642 16.2316 0.0574656 16.6239 0.0119154 18.1629C-0.0051659 18.6658 0.000527873 19.1687 0.00906853 19.6716C0.0375374 21.451 0.399092 21.8792 2.28373 21.7853C3.45949 21.7245 3.61892 22.3213 3.91784 23.1668C4.24808 24.1007 3.88083 24.4627 3.12641 24.8744C1.46098 25.7779 1.35565 26.2891 2.33782 27.9386C2.57411 28.3337 2.81325 28.7261 3.06093 29.1157C3.88653 30.4088 4.46729 30.5745 5.83095 29.7705C6.60815 29.3091 7.1576 29.0245 7.99743 29.8534C8.83156 30.674 8.89989 31.2349 8.27927 32.1688C7.43374 33.4398 7.6558 34.0643 8.9853 34.8683C9.38386 35.1115 9.79666 35.3325 10.2066 35.5563C11.8977 36.4875 12.4158 36.4073 13.3723 34.7661C13.8706 33.9123 14.3631 33.8211 15.294 34.0587C16.2392 34.3019 16.6064 34.6362 16.5808 35.6199C16.5352 37.5098 16.9082 37.7999 18.901 37.8193C19.2768 37.8248 19.6526 37.8248 20.0312 37.8193C22.0098 37.8027 22.3002 37.5126 22.3571 35.5978C22.3714 35.1336 22.1607 34.6058 22.8126 34.2908C24.1649 33.6305 24.8538 33.7907 25.631 35.0424C26.3883 36.2581 27.0317 36.4377 28.3071 35.7691C28.7626 35.5314 29.201 35.2607 29.648 35.0065C31.3305 34.0505 31.5326 33.5255 30.4793 31.9809C29.8985 31.1327 30.0949 30.6878 30.7754 30.0385C31.4728 29.3699 32.0081 29.0272 32.8934 29.7318C33.4258 30.1573 34.1318 30.6187 34.8236 30.1407C36.0535 29.2897 36.7339 28.0021 37.0727 26.6317C37.3574 25.4767 36.2385 25.0844 35.4243 24.7003C34.4421 24.2416 34.8834 23.6282 35.0314 22.9817C35.1823 22.3296 35.2734 21.8157 36.2158 21.7936ZM34.5731 25.5126C35.0798 25.7254 36.0136 25.916 35.8884 26.5543C35.7005 27.5158 35.1169 28.4442 34.3539 29.1046C33.8471 29.5439 33.2892 28.9001 32.8906 28.6072C31.86 27.8446 31.0487 27.8336 30.3682 28.983C30.3199 29.0604 30.2572 29.1433 30.1804 29.1875C28.5206 30.1463 28.4181 31.3095 29.6338 32.7048C30.0807 33.2188 30.0067 33.6885 29.3092 34.0062C28.885 34.1997 28.4836 34.4483 28.1021 34.7136C27.3078 35.2717 26.8011 35.1032 26.3228 34.2687C25.9784 33.6664 25.8189 32.6081 24.9706 32.691C23.7806 32.8016 22.5763 33.1856 21.4888 33.6774C20.9223 33.9344 21.1757 34.7799 21.2241 35.3436C21.3294 36.504 20.8397 36.9406 19.6839 36.7886C19.4077 36.7527 19.1174 36.7555 18.8384 36.7886C17.9017 36.8936 17.4605 36.5925 17.5174 35.5867C17.5516 34.9402 17.9131 33.9814 17.247 33.6719C16.1281 33.1525 14.8584 32.8264 13.6229 32.7076C12.9823 32.6468 12.7432 33.5918 12.4642 34.1361C11.966 35.1087 11.3966 35.3104 10.5112 34.6169C10.2949 34.4483 10.0358 34.3185 9.77673 34.2135C8.76039 33.8018 8.48994 33.1939 9.26999 32.3484C10.3518 31.1741 10.1411 30.2181 8.82302 29.3837C8.55257 29.2151 8.32197 28.9554 8.14262 28.6929C7.57894 27.8806 6.98109 27.8253 6.13556 28.3696C5.59181 28.7178 4.92279 29.555 4.33918 29.0797C3.66162 28.5271 3.26306 27.5932 2.90435 26.7588C2.65382 26.1758 3.39686 26.115 3.72141 25.8359C4.25947 25.369 5.40676 25.3247 5.32136 24.4931C5.20463 23.3381 4.81176 22.1749 4.33349 21.1C4.0972 20.5751 3.28014 20.7934 2.75347 20.8569C1.36419 21.0254 0.860287 20.4728 1.07096 19.177C1.10512 18.9532 1.09943 18.7183 1.07096 18.4917C0.945694 17.5219 1.40404 17.2042 2.36914 17.2263C3.04385 17.2428 4.02033 17.5772 4.34487 16.9168C4.85731 15.8696 5.17901 14.6732 5.27581 13.5155C5.3299 12.8827 4.3648 12.6755 3.79543 12.4186C2.77909 11.9571 2.65952 11.4625 3.26875 10.5259C4.43882 8.72436 4.40181 8.66357 6.26083 9.72734C6.98109 10.139 7.53908 10.2523 8.06006 9.50077C8.21664 9.27697 8.45293 9.10566 8.65221 8.91224C10.2123 7.3898 10.2522 7.3677 9.15896 5.51922C8.72054 4.77596 8.82587 4.35874 9.60876 4.04099C9.77958 3.97191 9.92762 3.85034 10.0899 3.7564C11.8123 2.76999 11.8493 2.75065 12.84 4.43611C13.3154 5.24292 13.8222 5.61869 14.7474 5.13516C14.9495 5.0274 15.1944 4.94451 15.4193 4.93898C17.2071 4.89201 17.8932 4.02441 17.6 2.3279C17.4576 1.50175 17.8932 1.14808 18.7444 1.23926C19.0234 1.26965 19.3138 1.2807 19.5899 1.23926C20.9508 1.02927 21.5144 1.57359 21.2838 2.8888C21.0817 4.04928 21.5315 4.71241 22.7898 4.77872C22.9777 4.78978 23.1628 4.83398 23.345 4.88096C25.3919 5.40317 25.4175 5.41975 26.5307 3.60443C26.9207 2.96616 27.2708 2.72025 27.9598 3.18444C28.4608 3.52154 29.0131 3.78955 29.5341 4.09901C29.7647 4.23717 30.0636 4.33664 30.0152 4.77043C29.8501 5.06332 29.6878 5.45291 29.4345 5.77342C28.663 6.74325 28.4665 7.61361 29.7562 8.32924C29.8757 8.39555 29.9583 8.51713 30.0579 8.61383C31.581 10.1031 31.6152 10.1556 33.4543 9.05869C34.3055 8.55305 34.7211 8.75751 35.0941 9.51459C35.1766 9.67761 35.2791 9.82958 35.3759 9.98707C36.3211 11.5482 36.3496 11.5979 34.6585 12.46C33.7162 12.938 33.4144 13.4851 33.9212 14.4107C34.0066 14.5682 34.0464 14.7616 34.0607 14.9412C34.2002 16.6571 35.04 17.4666 36.8933 17.1102C37.662 16.961 38.0292 17.3589 37.9637 18.1298C37.9353 18.4945 37.9267 18.8647 37.9666 19.2267C38.1004 20.3982 37.6307 20.9895 36.3752 20.7933C34.9119 20.5668 34.0208 21.0061 33.9866 22.5755C33.9809 22.8408 33.8728 23.1171 33.7475 23.3602C33.2322 24.3715 33.4514 25.0374 34.5731 25.5126Z" fill="#8E8E8E"/>
<path d="M37.9668 19.227C37.927 18.8651 37.9355 18.4948 37.964 18.1301C38.0295 17.3592 37.6622 16.9613 36.8936 17.1105C35.0402 17.467 34.2004 16.6574 34.0609 14.9416C34.0467 14.762 34.0068 14.5685 33.9214 14.411C33.4147 13.4854 33.7164 12.9383 34.6587 12.4603C36.3498 11.5983 36.3213 11.5485 35.3762 9.98741C35.2794 9.82992 35.1769 9.67795 35.0943 9.51493C34.7214 8.75785 34.3057 8.55339 33.4545 9.05903C31.6154 10.156 31.5813 10.1035 30.0582 8.61418C29.9585 8.51747 29.876 8.39589 29.7564 8.32958C28.4668 7.61395 28.6632 6.74359 29.4347 5.77376C29.6881 5.45325 29.8504 5.06366 30.0155 4.77078C30.0639 4.33698 29.765 4.23751 29.5344 4.09936C29.0134 3.78989 28.4611 3.52188 27.96 3.18479C27.2711 2.72059 26.9209 2.96651 26.5309 3.60477C25.4178 5.42009 25.3921 5.40351 23.3452 4.8813C23.163 4.83433 22.978 4.79012 22.7901 4.77906C21.5318 4.71275 21.082 4.04962 21.2841 2.88914C21.5147 1.57393 20.951 1.02961 19.5902 1.2396C19.314 1.28105 19.0237 1.26999 18.7447 1.2396C17.8934 1.14842 17.4579 1.50209 17.6002 2.32824C17.8934 4.02475 17.2073 4.89235 15.4195 4.93932C15.1946 4.94485 14.9498 5.02774 14.7476 5.1355C13.8224 5.61903 13.3156 5.24326 12.8402 4.43645C11.8495 2.75099 11.8125 2.77033 10.0901 3.75674C9.92786 3.85068 9.77982 3.97225 9.609 4.04133C8.82611 4.35908 8.72078 4.7763 9.1592 5.51956C10.2524 7.36804 10.2125 7.39014 8.65245 8.91258C8.45317 9.106 8.21688 9.27731 8.0603 9.50111C7.53932 10.2527 6.98133 10.1394 6.26107 9.72768C4.40205 8.66391 4.43906 8.7247 3.26899 10.5262C2.65976 11.4629 2.77933 11.9575 3.79566 12.4189C4.36504 12.6759 5.33014 12.8831 5.27605 13.5158C5.17925 14.6735 4.85755 15.8699 4.34511 16.9171C4.02057 17.5775 3.04409 17.2432 2.36938 17.2266C1.40428 17.2045 0.945933 17.5222 1.0712 18.4921C1.09966 18.7186 1.10536 18.9535 1.0712 19.1773C0.860526 20.4732 1.36442 21.0258 2.7537 20.8572C3.28038 20.7937 4.09743 20.5754 4.33373 21.1004C4.812 22.1752 5.20487 23.3385 5.3216 24.4934C5.407 25.3251 4.25971 25.3693 3.72165 25.8363C3.3971 26.1153 2.65406 26.1761 2.90459 26.7591C3.2633 27.5936 3.66186 28.5275 4.33942 29.0801C4.92303 29.5553 5.59205 28.7181 6.1358 28.37C6.98133 27.8256 7.57918 27.8809 8.14286 28.6932C8.32221 28.9557 8.55281 29.2155 8.82326 29.384C10.1414 30.2184 10.352 31.1745 9.27023 32.3488C8.49018 33.1942 8.76063 33.8021 9.77697 34.2138C10.036 34.3188 10.2951 34.4487 10.5115 34.6172C11.3968 35.3107 11.9662 35.109 12.4644 34.1364C12.7434 33.5921 12.9826 32.6472 13.6231 32.708C14.8587 32.8268 16.1284 33.1528 17.2472 33.6723C17.9134 33.9817 17.5518 34.9405 17.5177 35.587C17.4607 36.5928 17.902 36.894 18.8386 36.789C19.1176 36.7558 19.408 36.7531 19.6841 36.789C20.84 36.9409 21.3296 36.5044 21.2243 35.3439C21.1759 34.7802 20.9225 33.9347 21.4891 33.6778C22.5766 33.186 23.7808 32.8019 24.9708 32.6914C25.8192 32.6085 25.9786 33.6667 26.3231 34.2691C26.8013 35.1035 27.3081 35.2721 28.1024 34.7139C28.4839 34.4487 28.8853 34.2 29.3095 34.0066C30.0069 33.6888 30.081 33.2191 29.634 32.7052C28.4184 31.3099 28.5209 30.1466 30.1806 29.1878C30.2575 29.1436 30.3201 29.0607 30.3685 28.9834C31.0489 27.8339 31.8603 27.845 32.8908 28.6076C33.2894 28.9005 33.8474 29.5443 34.3541 29.1049C35.1171 28.4446 35.7007 27.5162 35.8886 26.5546C36.0139 25.9164 35.0801 25.7257 34.5733 25.513C33.4517 25.0377 33.2325 24.3718 33.7477 23.3606C33.873 23.1174 33.9812 22.8411 33.9869 22.5759C34.021 21.0064 34.9121 20.5671 36.3754 20.7937C37.6309 20.9899 38.1006 20.3986 37.9668 19.227ZM19.3852 30.3345C12.8459 30.34 7.62757 25.2809 7.65604 18.9563C7.68166 12.6013 12.8573 7.61948 19.4336 7.61395C25.8562 7.61119 31.1001 12.6924 31.1115 18.9369C31.1229 25.2698 25.9188 30.329 19.3852 30.3345Z" fill="#8E8E8E"/>
<path d="M19.4327 7.61328C12.8564 7.61881 7.68078 12.6006 7.65516 18.9556C7.62669 25.2802 12.845 30.3394 19.3843 30.3338C25.9179 30.3283 31.122 25.2692 31.1106 18.9363C31.0993 12.6918 25.8553 7.61052 19.4327 7.61328ZM18.9488 29.306C16.62 29.248 16.62 29.2479 16.62 26.9961C16.62 26.449 16.5773 25.8964 16.6285 25.3521C16.7253 24.327 16.4093 23.6196 15.524 22.9095C12.9618 20.8566 12.8422 16.9441 15.1396 14.7364C15.3304 14.5541 15.6179 14.286 15.8172 14.3192C16.2528 14.3855 16.1019 14.8221 16.1076 15.1122C16.1246 16.3915 16.1531 17.6735 16.1047 18.9501C16.0734 19.8315 16.4691 20.3012 17.3033 20.5499C18.0748 20.782 18.8434 20.9781 19.6548 20.9256C22.1344 20.7682 22.6298 20.257 22.6298 17.8891V14.1617C25.6275 15.8886 26.2169 20.1188 23.6831 22.4066C22.365 23.5948 22.0832 24.7608 22.123 26.3246C22.1999 29.3861 22.1458 29.3889 18.9488 29.306ZM24.4176 28.1013C23.5038 28.5986 23.2276 28.4163 23.2191 27.3912C23.2077 25.6505 23.3614 24.2054 24.7792 22.7299C27.5663 19.8287 26.5841 15.0818 23.128 12.9929C21.9721 12.2939 21.6305 12.4541 21.6106 13.7445C21.5878 15.2061 21.5337 16.6706 21.6277 18.1294C21.6988 19.2374 21.2519 19.6574 20.1615 19.8121C17.8612 20.1409 17.2235 19.6574 17.2235 17.3972V16.024C17.2207 15.2034 17.2093 14.38 17.2235 13.5594C17.2463 12.2469 16.546 12.5177 15.7887 12.9322C12.1362 14.9409 11.2365 20.2598 14.3425 23.0836C16.0307 24.6171 15.541 26.2832 15.5638 27.9742C15.578 28.828 14.8919 28.3389 14.5617 28.1704C11.359 26.5291 9.33482 23.9816 8.82238 20.5029C7.93131 14.4574 12.5091 8.91744 18.4876 8.6439C25.2318 8.33444 30.3875 13.1698 30.0117 19.6132C29.7925 23.3931 27.8453 26.2335 24.4176 28.1013Z" fill="#8E8E8E"/>
</svg>
