<svg width="42" height="40" viewBox="0 0 42 40" fill="none" xmlns="http://www.w3.org/2000/svg">
<path d="M29.7572 22.1034C29.5946 22.0619 29.5181 21.9374 29.4202 21.8429C28.5876 21.0397 27.7646 20.2283 26.924 19.4333C26.7204 19.2406 26.6653 19.073 26.7333 18.7923C27.6121 15.164 26.699 11.9938 23.899 9.46192C21.0962 6.9273 17.7364 6.21365 14.1083 7.40288C10.4723 8.59484 8.23095 11.1256 7.54853 14.8085C6.56063 20.1426 10.3879 25.1846 15.8816 25.902C17.1423 26.0664 18.3913 26.0085 19.6194 25.6782C19.9046 25.6012 20.0999 25.6345 20.3204 25.8567C21.2222 26.7642 22.1499 27.6471 23.1001 28.5704C22.4644 28.9068 21.8225 29.129 21.1648 29.3054C20.9004 29.3764 20.7834 29.4823 20.7558 29.7706C20.6799 30.5749 20.5539 31.3748 20.4481 32.1769C20.3913 32.6077 20.2416 32.7431 19.7848 32.7437C18.074 32.7464 16.3626 32.7404 14.6518 32.7475C14.2349 32.7491 14.038 32.5749 13.9924 32.1698C13.9001 31.3388 13.7713 30.5121 13.6751 29.6816C13.6526 29.4894 13.5935 29.4026 13.3921 29.3469C12.3986 29.0717 11.4439 28.6977 10.5471 28.1986C10.3485 28.0883 10.2225 28.1216 10.061 28.2466C9.39776 28.7594 8.7294 29.2661 8.05711 29.7673C7.67905 30.0491 7.46415 30.037 7.13278 29.7171C5.93053 28.5551 4.73053 27.391 3.53335 26.2236C3.20648 25.9053 3.19748 25.6929 3.48946 25.3254C4.00705 24.6735 4.52575 24.0221 5.05852 23.3822C5.19692 23.2156 5.20536 23.0917 5.09846 22.9093C4.59326 22.0493 4.2107 21.1369 3.93053 20.1868C3.87034 19.9837 3.79045 19.8991 3.56766 19.8756C2.71141 19.7855 1.85909 19.6632 1.00339 19.5704C0.612955 19.5278 0.418863 19.3563 0.419988 18.9638C0.425614 17.276 0.424488 15.5877 0.42055 13.8994C0.419425 13.532 0.592702 13.349 0.969073 13.307C1.83827 13.2098 2.70522 13.0902 3.57498 12.9952C3.77301 12.9734 3.86359 12.9128 3.92041 12.7178C4.20114 11.753 4.5882 10.8275 5.10128 9.95607C5.21211 9.76824 5.18623 9.64484 5.05346 9.48431C4.5235 8.84219 4.00367 8.19188 3.48665 7.53884C3.19579 7.17137 3.20817 6.96388 3.53728 6.64282C4.73503 5.47652 5.93503 4.31186 7.13728 3.14939C7.46302 2.83488 7.68412 2.82396 8.06274 3.10625C8.73503 3.60804 9.40451 4.11311 10.0655 4.62855C10.2332 4.7596 10.3615 4.77543 10.5528 4.66896C11.4377 4.17699 12.3783 3.80516 13.3584 3.53597C13.598 3.4699 13.6554 3.36233 13.6802 3.14174C13.7736 2.31124 13.8973 1.48348 13.9997 0.653528C14.0447 0.287695 14.2388 0.128257 14.6174 0.129895C16.3564 0.135902 18.0959 0.135902 19.8354 0.129895C20.2191 0.128803 20.4031 0.302438 20.4481 0.661719C20.5516 1.49167 20.6743 2.31889 20.7665 3.14993C20.7913 3.37435 20.8605 3.47427 21.0956 3.53815C22.0622 3.80188 22.991 4.16553 23.8619 4.65367C24.0824 4.77762 24.227 4.75305 24.4205 4.60016C25.0669 4.08963 25.7297 3.59767 26.3902 3.10407C26.7637 2.8245 26.9826 2.83379 27.3145 3.1543C28.5173 4.31568 29.7173 5.48034 30.9139 6.64774C31.2391 6.96497 31.2453 7.1801 30.9539 7.54758C30.4447 8.1886 29.9378 8.83181 29.4101 9.4581C29.2475 9.65084 29.2453 9.79281 29.3674 10.0014C29.8579 10.8373 30.2326 11.7241 30.5015 12.6496C30.569 12.8811 30.6574 12.9761 30.9218 13.0012C31.7786 13.0826 32.6304 13.2087 33.4855 13.3081C33.8624 13.3518 34.0284 13.5451 34.0278 13.9093C34.0239 15.5975 34.0239 17.2853 34.0273 18.9736C34.0278 19.3416 33.8461 19.5245 33.4754 19.5677C32.6202 19.6676 31.7685 19.7943 30.9117 19.874C30.6427 19.8991 30.5589 20.0077 30.4953 20.2316C30.3114 20.8776 30.0655 21.5028 29.7572 22.1034Z" fill="#EF3D55"/>
<path d="M41.2626 31.9896C41.0043 30.3122 40.0024 28.7413 38.5138 27.6798C37.0353 26.6255 35.2069 26.1695 33.4977 26.4294C33.4899 26.4305 33.4831 26.4316 33.4775 26.4322C33.4769 26.4316 33.4769 26.4316 33.4763 26.4311C30.3742 23.4132 27.3616 20.4904 24.5678 17.781C24.6685 17.17 24.66 16.5246 24.543 15.7569C24.2533 13.8584 23.0651 12.169 21.2834 11.1223C19.5079 10.0794 17.424 9.84191 15.5658 10.4709C14.997 10.6631 14.8063 10.9984 14.7467 11.2463C14.6977 11.4478 14.6814 11.8507 15.1197 12.2859C15.3813 12.5458 15.6496 12.8052 15.9096 13.0563L15.9377 13.0831C16.1357 13.2742 16.3337 13.4653 16.5295 13.658C16.633 13.7596 16.7439 13.8513 16.8513 13.9398C16.9706 14.0381 17.1906 14.2193 17.2198 14.2991C17.2193 14.3657 17.1326 14.5486 17.0747 14.6698C16.997 14.8336 16.9087 15.0193 16.8592 15.2191C16.7276 15.7493 16.4997 15.9797 16.0181 16.0693C15.6913 16.1299 15.4044 16.2544 15.127 16.3739L15.1157 16.3789C15.0859 16.392 15.0555 16.4045 15.0257 16.4176C14.4446 15.8334 13.8415 15.2535 13.257 14.6917L13.0004 14.4454C12.5278 13.9906 12.1155 13.9725 11.8527 14.0375C11.5889 14.103 11.2333 14.3127 11.0398 14.9412C10.8181 15.6619 10.7231 16.297 10.7501 16.8828C10.7428 17.2869 10.7726 17.674 10.8446 18.101C11.1 19.6146 11.9467 21.0189 13.2294 22.0553C14.4969 23.0796 16.0575 23.6437 17.6243 23.6437C17.9512 23.6437 18.2786 23.6185 18.5982 23.5694C18.6055 23.5683 18.6111 23.5672 18.6162 23.5667C18.6173 23.5678 18.619 23.5694 18.6207 23.571C21.4696 26.3426 24.3827 29.1699 27.5253 32.2145C27.4674 32.6011 27.4645 32.9844 27.469 33.276C27.5005 35.4027 28.556 37.3438 30.3652 38.6013C31.5613 39.4329 32.9498 39.8725 34.3799 39.8725C35.0893 39.8725 35.7948 39.7638 36.4772 39.5492C37.082 39.3592 37.2839 39.019 37.3469 38.7668C37.41 38.5151 37.392 38.123 36.9458 37.6856C36.2837 37.0359 35.5996 36.3643 34.8924 35.6992C35.0769 35.264 35.2671 34.7977 35.4223 34.3205C35.4673 34.1824 35.509 34.1431 35.6586 34.0978C36.0862 33.9694 36.5363 33.8062 37.0735 33.585C37.0763 33.5878 37.0786 33.5905 37.082 33.5932C37.5922 34.1081 38.1211 34.6176 38.6325 35.1101L38.6775 35.1532C38.8069 35.2777 38.9363 35.4027 39.0657 35.5272C39.4651 35.9133 39.8612 36.0612 40.2437 35.9662C40.6285 35.8712 40.9059 35.5523 41.0685 35.0189C41.3633 34.0486 41.4268 33.057 41.2626 31.9896ZM40.0417 34.7257C40.0153 34.8125 39.9889 34.8753 39.9669 34.9179C39.9292 34.8922 39.8792 34.8524 39.8184 34.7934C39.7031 34.6814 39.5872 34.5701 39.4713 34.4587L39.3897 34.38C38.8811 33.8903 38.3551 33.3836 37.851 32.8747C37.5017 32.5225 37.1174 32.44 36.6763 32.6219C36.1644 32.8332 35.7402 32.9877 35.3419 33.1073C34.8597 33.252 34.5526 33.5468 34.4024 34.0087C34.2544 34.4652 34.0659 34.9233 33.8842 35.3509C33.7115 35.7576 33.7886 36.1066 34.1199 36.4178C34.8271 37.0828 35.5174 37.7605 36.1852 38.4151C36.2251 38.4539 36.2527 38.4872 36.2713 38.5134C36.242 38.5282 36.2015 38.5456 36.1469 38.5626C34.3945 39.1135 32.5138 38.8203 30.9869 37.7583C29.4561 36.6941 28.5633 35.0549 28.5368 33.2612C28.5329 33.0068 28.5351 32.6743 28.583 32.3603C28.6358 32.012 28.5413 31.734 28.2848 31.4856C25.1309 28.4301 22.2173 25.6017 19.3762 22.8383C19.1613 22.6291 18.92 22.5276 18.6387 22.5276C18.5712 22.5276 18.5025 22.533 18.4294 22.5445C18.1638 22.5855 17.8916 22.6062 17.6198 22.6062C14.8536 22.6062 12.3411 20.5532 11.8989 17.9328C11.8364 17.5643 11.8111 17.2301 11.8184 16.8812V16.8736L11.8179 16.8495C11.7942 16.3783 11.8747 15.8509 12.0631 15.2371C12.0845 15.1672 12.107 15.1165 12.1256 15.081C12.1571 15.1023 12.1987 15.1345 12.2471 15.1809L12.5036 15.4277C13.0893 15.9906 13.6941 16.5721 14.2747 17.1558C14.6044 17.4878 14.9897 17.5632 15.4212 17.3803C15.4679 17.3606 15.5146 17.3404 15.5619 17.3196C15.7841 17.2235 16.0136 17.1242 16.2184 17.0865C17.118 16.9194 17.6671 16.3876 17.8977 15.4605C17.9231 15.3594 17.9849 15.2289 18.0451 15.1017C18.188 14.8003 18.3506 14.458 18.264 14.0774C18.17 13.664 17.8364 13.3894 17.5411 13.1459C17.4477 13.0689 17.3588 12.9957 17.289 12.9275C17.0842 12.7265 16.8778 12.5272 16.6702 12.3263C16.4243 12.0888 16.1458 11.8196 15.8837 11.5591C15.8561 11.5318 15.8364 11.5084 15.8218 11.4887C15.8454 11.4767 15.8769 11.4625 15.9174 11.4488C17.4735 10.9225 19.2271 11.1261 20.7292 12.0085C22.2375 12.8947 23.2423 14.3154 23.4848 15.9071C23.5889 16.5902 23.5945 17.1493 23.5028 17.6669C23.4201 18.1338 23.7042 18.4095 23.8117 18.5132C26.6004 21.2177 29.6102 24.1373 32.7191 27.1622C32.9824 27.4183 33.2817 27.5106 33.6626 27.4527C35.0927 27.2354 36.6302 27.6225 37.8808 28.5142C39.1416 29.4134 39.9889 30.7354 40.2055 32.1414C40.3461 33.0576 40.2927 33.9028 40.0417 34.7257Z" fill="#EF3D55"/>
</svg>
