<svg width="40" height="38" viewBox="0 0 40 38" fill="none" xmlns="http://www.w3.org/2000/svg">
<path d="M36.6518 28.111C34.4968 26.0142 32.3384 23.9201 30.1787 21.8272C29.718 21.3808 29.4267 21.3841 28.9558 21.8206C28.8651 21.9047 28.7736 21.9915 28.6692 22.0577C28.2448 22.3286 27.7337 22.1372 27.591 21.6636C27.486 21.3133 27.6886 21.0841 27.9145 20.8603C28.3976 20.3821 28.3963 20.0973 27.907 19.6198C27.5515 19.2728 27.2055 18.9151 26.8315 18.5873C26.6255 18.4065 26.6582 18.3071 26.8404 18.1336C27.8039 17.217 28.7586 16.2911 29.703 15.356C29.9078 15.1533 30.0913 15.0553 30.3922 15.1414C30.6297 15.2089 30.8904 15.2109 31.1415 15.2228C35.9053 15.4507 40.1258 11.3829 39.0715 6.1481C39.0074 5.83086 38.9241 5.55468 38.5693 5.44209C38.2022 5.32619 37.9763 5.54077 37.7491 5.76132C36.5453 6.9296 35.3382 8.09457 34.1392 9.2675C33.9789 9.42446 33.8431 9.47413 33.6124 9.39532C32.7472 9.09927 31.873 8.82707 31.0003 8.55354C30.8058 8.49261 30.6959 8.39526 30.6304 8.19326C30.3581 7.35612 30.0695 6.52295 29.7679 5.69509C29.6826 5.45931 29.7099 5.30897 29.9009 5.12618C31.1149 3.96783 32.3118 2.79292 33.519 1.62795C33.7551 1.40012 33.9359 1.16434 33.8253 0.821937C33.7182 0.488804 33.4248 0.410654 33.1218 0.351047C32.8284 0.292766 32.5343 0.237133 32.2408 0.180176H30.7273C30.6434 0.203356 30.5615 0.236471 30.4762 0.248392C28.2796 0.546424 26.5129 1.55907 25.2136 3.29759C23.9894 4.93544 23.5513 6.77727 23.8427 8.78137C23.8761 9.01384 23.8823 9.20325 23.6748 9.40393C19.1015 13.8274 14.5376 18.2608 9.97655 22.6968C9.81415 22.8544 9.65993 22.8968 9.4402 22.8584C5.64885 22.1988 1.72307 24.6579 0.762264 28.2726C0.604632 28.8674 0.577337 29.4774 0.455872 30.0741V30.4417C0.479755 30.5834 0.516604 30.7251 0.52411 30.8682C0.558912 31.5073 0.700849 32.1245 0.914437 32.7272C2.07791 36.0155 5.53148 38.2819 9.35899 37.7063C12.3328 37.2593 14.3745 35.6201 15.4978 32.9219C15.9979 31.7192 16.1064 30.4602 15.9017 29.176C15.8717 28.9899 15.8369 28.8111 16.0191 28.6376C17.0365 27.67 18.041 26.6884 19.0434 25.7056C19.1806 25.5705 19.2686 25.5612 19.4085 25.7023C19.7832 26.0818 20.1708 26.4507 20.5577 26.8196C21.0231 27.2633 21.3069 27.2607 21.7812 26.8123C21.9347 26.6672 22.0828 26.5116 22.3073 26.4745C22.6396 26.4202 22.9037 26.5275 23.0757 26.8149C23.2531 27.1116 23.1821 27.405 22.8607 27.7375C22.3046 28.3137 22.308 28.5223 22.886 29.0826C24.4022 30.5542 25.9165 32.0265 27.4348 33.4955C28.4979 34.5234 29.5359 35.5777 30.6386 36.5639C32.3664 38.1084 35.1369 38.2455 37.0346 36.903C38.4506 35.9009 39.2183 34.5783 39.2217 32.8186C39.2244 31.5954 38.9071 30.5218 38.1176 29.5933C37.6699 29.0661 37.1506 28.5958 36.6518 28.111ZM14.9027 27.919C14.5506 28.2601 14.4489 28.5886 14.5431 29.0628C15.0167 31.4464 14.3172 33.4895 12.4366 35.0724C10.5661 36.6467 8.37635 37.0447 6.04122 36.2433C3.72178 35.4473 2.29696 33.8107 1.82747 31.4662C1.1328 27.9998 3.5273 24.7168 7.13372 24.1148C7.93689 23.9803 8.73938 23.9876 9.53368 24.1625C9.96427 24.2572 10.2939 24.177 10.6207 23.8585C15.3749 19.2277 20.1387 14.6076 24.9058 9.99006C25.189 9.71587 25.3085 9.44896 25.215 9.04496C24.4882 5.91232 26.2959 2.96909 29.0848 1.88624C29.8886 1.5743 31.0651 1.37826 31.7359 1.46701C31.7727 1.50807 31.8096 1.54847 31.8464 1.58887C31.7284 1.6604 31.5905 1.71338 31.4943 1.8061C30.5178 2.7459 29.5536 3.69695 28.5744 4.63277C28.2864 4.90762 28.2209 5.19307 28.3505 5.55998C28.7504 6.69184 29.1394 7.82701 29.5188 8.96549C29.6341 9.31054 29.8504 9.51983 30.2032 9.63109C31.3749 10.0007 32.5465 10.3729 33.7114 10.7616C34.1099 10.8954 34.4074 10.8093 34.6968 10.5232C35.6425 9.58937 36.6033 8.66945 37.5546 7.74091C37.6522 7.64554 37.7286 7.52964 37.8644 7.44354C37.9749 7.79389 37.9477 8.131 37.9074 8.45619C37.5239 11.5769 34.881 13.8936 31.6178 13.9645C31.1415 13.9744 30.657 13.942 30.1937 13.8188C29.7528 13.7015 29.4321 13.8221 29.1121 14.1334C24.3831 18.7356 19.648 23.3319 14.9027 27.919ZM31.2671 35.4261C28.9176 33.1365 26.5634 30.8516 24.2043 28.5713C24.0583 28.4296 24.059 28.3362 24.1648 28.1693C24.6779 27.3554 24.5606 26.4003 23.8857 25.7493C23.2047 25.0917 22.2309 24.9797 21.3902 25.4831C21.2203 25.5851 21.1172 25.6043 20.9835 25.448C20.7358 25.1585 20.2417 24.9479 20.2472 24.6194C20.2513 24.3598 20.6948 24.1022 20.9514 23.8525C22.4492 22.3981 23.9539 20.9503 25.4436 19.488C25.6415 19.2933 25.765 19.2661 25.9315 19.492C25.9888 19.5708 26.0645 19.641 26.1444 19.6999C26.5559 20.0033 26.6753 20.2761 26.4139 20.8205C25.8148 22.069 26.8575 23.469 28.2891 23.4618C28.6795 23.4684 29.037 23.3591 29.3557 23.1485C29.5017 23.0518 29.5904 23.0346 29.7296 23.1703C32.0948 25.4791 34.4654 27.7826 36.8408 30.082C37.0094 30.2456 36.9896 30.3344 36.8292 30.4887C35.1287 32.1272 33.4337 33.7703 31.7461 35.4214C31.5598 35.6042 31.4513 35.6056 31.2671 35.4261ZM34.6053 36.4818C33.8513 36.5685 33.3907 36.5242 32.6776 36.2784C32.9628 36.0096 33.2173 35.7744 33.4657 35.5334C34.7957 34.2445 36.1264 32.957 37.4488 31.6609C37.6481 31.4662 37.7293 31.4424 37.8187 31.7411C38.4574 33.877 36.8736 36.2215 34.6053 36.4818Z" fill="#EF3D55"/>
<path d="M34.6054 36.4815C33.8514 36.5683 33.3908 36.5239 32.6777 36.2782C32.9629 36.0093 33.2175 35.7742 33.4658 35.5331C34.7958 34.2443 36.1265 32.9568 37.4489 31.6607C37.6482 31.466 37.7294 31.4421 37.8188 31.7408C38.4575 33.8767 36.8737 36.2212 34.6054 36.4815Z" fill="#EF3D55"/>
<path d="M36.8407 30.0814C34.4653 27.7819 32.0947 25.4785 29.7295 23.1697C29.5903 23.034 29.5016 23.0512 29.3556 23.1479C29.0369 23.3585 28.6793 23.4678 28.289 23.4611C26.8573 23.4684 25.8147 22.0683 26.4138 20.8199C26.6752 20.2755 26.5557 20.0026 26.1443 19.6993C26.0644 19.6404 25.9887 19.5702 25.9313 19.4914C25.7648 19.2655 25.6413 19.2927 25.4434 19.4874C23.9538 20.9497 22.4491 22.3975 20.9513 23.8519C20.6947 24.1016 20.2511 24.3592 20.2471 24.6188C20.2416 24.9473 20.7356 25.1579 20.9834 25.4474C21.1171 25.6037 21.2201 25.5845 21.3901 25.4825C22.2308 24.9791 23.2045 25.091 23.8855 25.7487C24.5604 26.3997 24.6778 27.3548 24.1646 28.1687C24.0589 28.3356 24.0582 28.429 24.2042 28.5707C26.5632 30.851 28.9175 33.1359 31.2669 35.4255C31.4512 35.6049 31.5597 35.6036 31.746 35.4208C33.4335 33.7697 35.1286 32.1266 36.8291 30.4881C36.9895 30.3338 37.0092 30.245 36.8407 30.0814ZM33.7877 31.8285C33.1169 32.6783 33.0603 32.6816 32.283 31.9272C30.4474 30.1457 28.6152 28.3601 26.7707 26.5865C26.5612 26.3852 26.5373 26.2613 26.7714 26.0752C27.0047 25.8904 27.1979 25.5301 27.4319 25.5103C27.6735 25.4904 27.8714 25.8633 28.0836 26.0686C29.9397 27.8647 31.7924 29.6648 33.6457 31.4649C33.7249 31.5418 33.8 31.6232 33.8846 31.71C33.8471 31.7557 33.817 31.7915 33.7877 31.8285Z" fill="#EF3D55"/>
<path d="M37.8646 7.44327C37.7288 7.52937 37.6524 7.64527 37.5548 7.74064C36.6035 8.66918 35.6427 9.5891 34.6969 10.5229C34.4076 10.809 34.1101 10.8951 33.7116 10.7614C32.5467 10.3726 31.3751 10.0004 30.2034 9.63083C29.8506 9.51956 29.6343 9.31028 29.519 8.96522C29.1396 7.82674 28.7506 6.69157 28.3507 5.55971C28.2211 5.1928 28.2866 4.90735 28.5745 4.6325C29.5538 3.69668 30.518 2.74563 31.4945 1.80584C31.5907 1.71312 31.7285 1.66013 31.8466 1.5886C31.8097 1.5482 31.7729 1.5078 31.7361 1.46674C31.0653 1.378 29.8888 1.57403 29.085 1.88597C26.2961 2.96882 24.4884 5.91205 25.2151 9.0447C25.3086 9.4487 25.1892 9.7156 24.906 9.98979C20.1389 14.6073 15.3751 19.2274 10.6209 23.8582C10.294 24.1768 9.96445 24.2569 9.53386 24.1622C8.73956 23.9873 7.93708 23.9801 7.13391 24.1145C3.52748 24.7165 1.13298 27.9995 1.82765 31.466C2.29714 33.8105 3.72196 35.447 6.0414 36.2431C8.37653 37.0444 10.5663 36.6464 12.4367 35.0721C14.3174 33.4893 15.0169 31.4461 14.5433 29.0625C14.4491 28.5883 14.5508 28.2598 14.9029 27.9187C19.6482 23.3317 24.3833 18.7354 29.1123 14.1331C29.4323 13.8218 29.753 13.7013 30.1939 13.8185C30.6572 13.9417 31.1417 13.9741 31.618 13.9642C34.8812 13.8933 37.5241 11.5766 37.9076 8.45592C37.9478 8.13073 37.9751 7.79362 37.8646 7.44327ZM12.623 30.703C12.0082 31.6838 11.4009 32.6693 10.7936 33.6542C10.6305 33.9191 10.4073 34.0489 10.0798 34.0423C9.4629 34.0297 8.84534 34.039 8.22777 34.039C7.62318 34.039 7.0179 34.0304 6.4133 34.0423C6.08849 34.0482 5.86193 33.925 5.69816 33.6575C5.08606 32.6607 4.47191 31.666 3.85367 30.6732C3.68648 30.405 3.68375 30.154 3.8523 29.8831C4.47123 28.8903 5.08265 27.8935 5.69407 26.8968C5.85784 26.6299 6.09463 26.5001 6.41057 26.4994C7.63273 26.4994 8.85489 26.4994 10.077 26.5001C10.3916 26.5001 10.6284 26.6253 10.7936 26.8948C11.3988 27.881 12.0068 28.8658 12.6224 29.846C12.8059 30.1387 12.8073 30.4096 12.623 30.703Z" fill="#EF3D55"/>
<path d="M3.93638 0.180176C5.38509 0.989497 6.82902 1.80677 8.28524 2.6035C8.65236 2.80418 8.8987 3.04989 8.96217 3.46449C8.99492 3.68039 9.09796 3.88769 9.12253 4.1036C9.24058 5.12883 9.80696 5.86662 10.5596 6.57395C12.8961 8.77077 15.1699 11.0305 17.4811 13.2532C17.7254 13.4876 17.7254 13.6194 17.4709 13.8181C17.2464 13.9936 17.0512 14.3526 16.8403 14.3546C16.6322 14.3566 16.4159 14.0168 16.2119 13.8188C13.687 11.3709 11.1656 8.91979 8.63598 6.47659C8.40193 6.25075 8.25658 6.00239 8.18151 5.69509C8.04026 5.11293 7.87512 4.53674 7.73796 3.95458C7.69975 3.79364 7.62264 3.70026 7.4807 3.62211C6.34248 2.99426 5.20494 2.36375 4.07217 1.72729C3.90703 1.63457 3.79376 1.62265 3.64773 1.76902C3.1489 2.27103 2.6412 2.76577 2.12395 3.2499C1.97246 3.39163 1.98952 3.49296 2.08506 3.65324C2.73537 4.74205 3.37818 5.83549 4.0128 6.93291C4.10902 7.09981 4.23458 7.18326 4.41473 7.22565C4.90332 7.34088 5.38509 7.49056 5.87982 7.57335C6.41618 7.66276 6.81469 7.91907 7.1941 8.29061C9.75033 10.7947 12.3216 13.2836 14.8976 15.7686C15.1132 15.9765 15.1671 16.1043 14.9058 16.3037C14.671 16.4825 14.4759 16.8441 14.2459 16.8587C14.0002 16.8739 13.8044 16.503 13.5915 16.2971C11.1369 13.9194 8.68512 11.5392 6.23671 9.15557C6.06133 8.98536 5.87572 8.87542 5.62802 8.82111C4.97838 8.67872 4.33762 8.50056 3.68935 8.34956C3.41094 8.28465 3.2226 8.13564 3.08339 7.89787C2.27408 6.51699 1.45794 5.14009 0.647948 3.75987C0.413206 3.35918 0.439137 3.11744 0.760542 2.80153C1.56712 2.00877 2.37917 1.22196 3.19462 0.43847C3.30039 0.337139 3.43619 0.265612 3.55833 0.180176C3.68458 0.180176 3.81082 0.180176 3.93638 0.180176Z" fill="#EF3D55"/>
<path d="M11.2394 30.4767C10.7986 31.1735 10.3646 31.8742 9.94082 32.5809C9.8446 32.7405 9.73405 32.7948 9.54981 32.7901C9.10967 32.7782 8.66816 32.7862 8.22802 32.7862C8.16456 32.7862 8.10178 32.7875 8.039 32.7862C7.58794 32.7776 7.05841 32.9067 6.70766 32.7199C6.37261 32.5411 6.21975 32.0351 5.99184 31.6709C5.74959 31.2847 5.52167 30.8907 5.27055 30.5105C5.16137 30.3469 5.14909 30.2264 5.261 30.0516C5.69431 29.3793 6.11194 28.6972 6.52342 28.0117C6.62441 27.8441 6.73837 27.7753 6.9424 27.7779C7.81108 27.7885 8.67976 27.7859 9.54844 27.7799C9.72586 27.7786 9.84733 27.8123 9.94696 27.9792C10.3687 28.6866 10.804 29.3866 11.2462 30.0827C11.3397 30.2304 11.3295 30.3344 11.2394 30.4767Z" fill="#EF3D55"/>
<path d="M33.8836 31.7103C33.8461 31.7559 33.816 31.7917 33.7867 31.8288C33.1159 32.6785 33.0593 32.6818 32.282 31.9275C30.4464 30.1459 28.6142 28.3604 26.7697 26.5868C26.5602 26.3854 26.5363 26.2616 26.7704 26.0755C27.0038 25.8907 27.1969 25.5304 27.4309 25.5105C27.6725 25.4907 27.8704 25.8635 28.0826 26.0688C29.9387 27.865 31.7914 29.6651 33.6448 31.4652C33.7239 31.542 33.799 31.6235 33.8836 31.7103Z" fill="#EF3D55"/>
</svg>
