<svg width="50" height="35" viewBox="0 0 50 35" fill="none" xmlns="http://www.w3.org/2000/svg">
<path d="M49.9865 7.07092C49.8524 4.94178 48.1069 3.15783 46.0088 3.11499C43.4514 3.05956 40.894 3.08224 38.3366 3.08224C38.0312 3.08224 37.7978 3.00917 37.5842 2.77232C38.5426 3.85831 39.4812 5.48099 39.8859 7.8621C39.876 7.79659 39.866 7.73108 39.8561 7.66305C39.7642 7.14399 39.6153 6.63753 39.4862 6.12603C39.4241 5.87658 39.4464 5.74808 39.7618 5.74808C41.768 5.7632 43.7717 5.74556 45.7779 5.7632C46.6767 5.77076 47.3173 6.45107 47.372 7.39848C47.3869 7.67061 47.372 7.94273 47.372 8.21486C47.372 15.4086 47.372 22.6023 47.3695 29.7961C47.3695 30.0833 47.3695 30.3731 47.362 30.6603C47.3297 31.575 46.6792 32.2528 45.7729 32.2981C45.3782 32.3183 44.9834 32.3057 44.5886 32.3057C39.0938 32.3107 33.6016 32.3158 28.1069 32.3208C28.0125 32.3208 27.9157 32.3258 27.8089 32.3082H25.3136C25.2564 32.3107 25.1969 32.3132 25.1373 32.3132C18.2844 32.3032 11.4315 32.3032 4.58105 32.3006C3.24771 32.3006 2.64188 31.6984 2.64188 30.3403C2.63691 22.9047 2.63691 15.4716 2.63443 8.03596C2.63443 7.82683 2.6245 7.61769 2.63691 7.41108C2.70395 6.39816 3.31475 5.80099 4.31537 5.76572C4.52146 5.75816 4.72506 5.75816 4.93114 5.75816C7.22041 5.75564 9.50968 5.74808 11.7989 5.7632C12.1664 5.76572 12.3079 5.66493 12.2881 5.27689C12.2608 4.71752 12.2633 4.15563 12.2881 3.59626C12.303 3.19814 12.154 3.06712 11.7667 3.06964C9.25642 3.08224 6.74617 3.05704 4.23592 3.08476C1.81258 3.11499 0.0124477 4.99469 0.00996476 7.45391C0.00748183 15.1465 0.0298282 22.8367 3.30203e-05 30.5293C-0.00989872 33.2884 2.22226 35.0421 4.44697 34.9992C7.09874 34.9514 9.75052 34.9892 12.4048 34.9892C23.5358 34.9892 34.6668 34.9866 45.8003 34.9841C46.0188 34.9841 46.2422 34.9715 46.4558 34.9236C48.7103 34.4172 49.9964 32.7945 49.9989 30.4335C50.0014 22.8039 49.9989 15.1768 49.9989 7.54966C49.9989 7.39092 49.9964 7.22966 49.9865 7.07092ZM39.8859 7.8621C39.9132 8.02588 39.938 8.18715 39.9604 8.34841C39.938 8.18463 39.9132 8.02084 39.8859 7.8621ZM24.8244 21.2543C24.8219 21.2543 24.8219 21.2568 24.8195 21.2568C24.8145 21.2619 24.812 21.2669 24.807 21.2719C24.8095 21.2694 24.812 21.2694 24.8145 21.2669C24.817 21.2619 24.8219 21.2593 24.8244 21.2543Z" fill="#032D5F"/>
<path d="M42.8776 1.91072C42.2941 1.91072 41.7081 1.90065 41.1246 1.91324C40.6727 1.92332 40.6007 1.58568 40.5982 1.27324C40.5982 0.94568 40.6653 0.545049 41.1023 0.53497C42.2221 0.509773 43.3444 0.527411 44.4642 0.52993C44.7174 0.52993 44.8838 0.676073 44.9583 0.905365C45.0601 1.21277 45.0998 1.53781 44.9781 1.84269C44.9285 1.96868 44.7522 1.92332 44.628 1.92332C44.0445 1.92584 43.4586 1.92584 42.8751 1.92584C42.8776 1.9208 42.8776 1.91576 42.8776 1.91072Z" fill="#032D5F"/>
<path d="M39.9646 8.39142C39.9646 8.3763 39.9621 8.3637 39.9597 8.34858C39.6046 5.70038 38.6065 3.93155 37.5835 2.77249C37.581 2.76997 37.576 2.76493 37.5711 2.75989C36.7914 1.8906 35.8777 1.238 34.8498 0.786972C34.8423 0.784453 34.8349 0.781933 34.8299 0.779413C34.4426 0.608074 34.0403 0.469491 33.6207 0.358624C30.959 -0.349411 28.4413 -0.0697245 26.2464 1.74446C24.4637 3.21596 23.468 5.19392 22.9689 7.43897C22.882 7.82952 22.7976 7.99079 22.3358 7.95299C20.7864 7.827 19.2818 8.08905 17.864 8.74669C11.8727 11.5209 10.4723 20.0022 15.2669 24.4696C16.7715 25.8731 18.522 26.7524 20.553 26.8961C23.7734 27.1228 26.2688 25.7446 28.1086 23.0989C28.4935 22.5446 28.8038 21.9398 28.9975 21.2242C28.918 21.2771 28.8808 21.2872 28.8684 21.3124C28.8113 21.4082 28.7591 21.5064 28.7095 21.6047C27.9323 23.1442 26.8125 24.3537 25.3128 25.1802C21.9733 27.0246 18.2787 26.2712 15.7212 23.3483C14.008 21.388 13.4816 19.085 13.9037 16.5502C14.4028 13.5366 16.0391 11.4025 18.8597 10.2686C19.8702 9.86292 20.9379 9.72686 22.0205 9.8352C22.234 9.85536 22.5816 9.76213 22.6089 10.1502C22.6387 10.5483 22.6213 10.9464 22.6462 11.3445C22.6685 11.6645 22.5419 11.7728 22.234 11.7426C21.7126 11.6897 21.1837 11.6998 20.6772 11.8132C18.1595 12.3725 16.4289 13.8793 15.7957 16.4217C15.1676 18.9464 15.8628 21.1638 17.8889 22.8268C19.7933 24.389 21.9584 24.6888 24.2005 23.7263C26.3954 22.7814 27.612 21.0101 27.9075 18.6088C27.9423 18.3215 28.054 18.1981 28.2973 18.0922C29.144 17.7219 29.5835 17.0239 29.7002 16.1269C29.7821 15.507 29.7498 14.8822 29.5934 14.2673C28.9876 11.8938 27.6393 10.0998 25.5264 8.91299C25.2259 8.74669 25.1117 8.56528 25.1912 8.22764C25.4966 6.93755 25.9807 5.73062 26.7852 4.67235C29.0472 1.69154 32.9652 2.03926 35.3066 4.03486C36.6747 5.20148 37.2235 6.80905 37.4395 8.55772C37.6381 10.1577 37.5413 11.7527 37.3426 13.3451C37.067 15.5776 36.6176 17.7672 35.7362 19.8409C33.6753 24.6964 30.5841 28.7304 26.3954 31.8926C26.0478 32.1547 25.7126 32.2807 25.3128 32.3084H27.8082C27.7064 32.2958 27.5971 32.2655 27.4755 32.2C28.1384 31.7641 28.7666 31.3736 29.3749 30.9503C33.211 28.2895 36.0043 24.7342 37.9832 20.5061C38.9193 18.508 39.4308 16.3789 39.7585 14.2044C39.7734 14.1187 39.7883 14.033 39.7983 13.9499C39.8181 13.7987 39.8405 13.6475 39.8603 13.4963C40.0888 11.7955 40.1732 10.0922 39.9646 8.39142ZM27.2495 18.8356C26.8051 21.7156 24.2303 24.0236 20.9404 23.56C18.3283 23.1921 16.4388 21.0554 16.2576 18.4576C16.054 15.5524 17.864 13.0982 20.6375 12.4708C21.2284 12.3373 21.8293 12.3625 22.4277 12.4003C22.6859 12.4154 23.026 13.199 22.8671 13.3981C22.7753 13.5114 22.6412 13.4711 22.5146 13.451C21.6207 13.3099 20.7591 13.4157 19.9224 13.7785C19.5971 13.9196 19.3141 14.1036 19.0831 14.3732C20.1036 13.6878 21.2135 13.3905 22.4426 13.5291C22.8075 13.5694 22.9938 13.6777 23.103 14.0532C23.4928 15.4063 24.0937 16.6384 25.2557 17.5026C25.4072 17.616 25.5562 17.7521 25.73 17.81C26.2067 17.9738 26.2017 18.2963 26.1247 18.7197C25.941 19.7074 25.4419 20.5112 24.8187 21.257C24.8212 21.257 24.8212 21.2545 24.8237 21.2545C24.8212 21.2595 24.8162 21.262 24.8138 21.2671C25.6257 20.6699 25.9683 19.7956 26.2017 18.8532C26.2166 18.7902 26.2191 18.7247 26.2315 18.6642C26.2837 18.3871 26.2712 18.0721 26.7281 18.1956C27.0782 18.2913 27.3339 18.2863 27.2495 18.8356ZM25.5711 11.3571C26.7455 12.4582 27.5351 13.7659 27.5946 15.4365C27.6145 16.0664 27.4035 16.2 26.8597 15.9026C26.3432 15.6204 25.9907 15.1694 25.7275 14.6478C25.2557 13.7055 25.0521 12.6925 24.9528 11.6771C24.9975 11.4226 24.774 11.1051 25.0174 10.9892C25.2309 10.8884 25.4072 11.2034 25.5711 11.3571Z" fill="#032D5F"/>
<path d="M24.8235 21.2545C24.821 21.2595 24.816 21.262 24.8135 21.2671C24.0736 22.1716 23.068 22.5093 21.9656 22.5798C21.0792 22.6353 20.2201 22.4916 19.5026 21.8819C20.8086 22.537 22.1394 22.6907 23.515 22.0986C23.9967 21.8919 24.3691 21.514 24.8185 21.257C24.821 21.257 24.821 21.2545 24.8235 21.2545Z" fill="#032D5F"/>
<path d="M18.4697 21.1287C17.196 19.758 16.8682 17.7447 17.6479 16.0666C17.7124 15.9255 17.7522 15.7617 17.9061 15.6786C17.5461 16.5554 17.2457 17.4424 17.3599 18.4175C17.4592 19.2817 17.7547 20.0603 18.2761 20.7507C18.363 20.8666 18.4474 20.98 18.4697 21.1287Z" fill="#032D5F"/>
<path d="M17.8912 15.6984C18.0948 15.197 18.4499 14.819 18.8496 14.4789C18.5864 14.9299 18.219 15.2978 17.8912 15.6984Z" fill="#032D5F"/>
</svg>
